<?xml version="1.0" encoding="utf-8"?>
<!-- Generator: Adobe Illustrator 24.1.1, SVG Export Plug-In . SVG Version: 6.00 Build 0)  -->
<svg version="1.1" id="Слой_1" xmlns="http://www.w3.org/2000/svg" xmlns:xlink="http://www.w3.org/1999/xlink" x="0px" y="0px"
	 viewBox="0 0 771.72 280.6" style="enable-background:new 0 0 771.72 280.6;" xml:space="preserve">
<style type="text/css">
	.st0{fill:#FFB342;}
	.st1{fill:#231F20;}
	.st2{fill:#BAC5C7;}
	.st3{fill:#FFFFFF;}
	.st4{fill:#00A5D9;}
	.st5{fill:#CDD5D7;}
	.st6{fill:#22272E;}
	.st7{clip-path:url(#SVGID_2_);}
	.st8{clip-path:url(#SVGID_4_);}
	.st9{clip-path:url(#SVGID_6_);}
	.st10{clip-path:url(#SVGID_8_);}
	.st11{clip-path:url(#SVGID_10_);}
	.st12{clip-path:url(#SVGID_12_);}
	.st13{clip-path:url(#SVGID_14_);}
	.st14{clip-path:url(#SVGID_16_);}
	.st15{fill:#201600;}
	.st16{clip-path:url(#SVGID_18_);}
	.st17{fill:#A3AEB0;}
	.st18{clip-path:url(#SVGID_20_);}
	.st19{fill:#272425;}
</style>
<g>
	<g>
		<g>
			<path class="st0" d="M308.6,142.76h-4.44c-0.96,0-1.75-0.79-1.75-1.75v-13.08c0-0.96,0.79-1.75,1.75-1.75h4.44
				c0.96,0,1.75,0.79,1.75,1.75v13.08C310.35,141.97,309.57,142.76,308.6,142.76z"/>
		</g>
		<g>
			<path class="st1" d="M356.61,139.37h-46.46v-9.81h46.46l5.98,4.9L356.61,139.37z M312.15,137.37h43.75l3.54-2.91l-3.54-2.9
				h-43.75V137.37z"/>
		</g>
		<g>
			
				<rect x="315.52" y="130.47" transform="matrix(0.9775 -0.2111 0.2111 0.9775 -21.2525 69.8423)" class="st1" width="2" height="7.99"/>
		</g>
		<g>
			
				<rect x="320.48" y="130.47" transform="matrix(0.9775 -0.2111 0.2111 0.9775 -21.14 70.8845)" class="st1" width="2" height="7.99"/>
		</g>
		<g>
			
				<rect x="325.43" y="130.47" transform="matrix(0.9775 -0.2111 0.2111 0.9775 -21.0283 71.9308)" class="st1" width="2" height="7.99"/>
		</g>
		<g>
			
				<rect x="330.39" y="130.47" transform="matrix(0.9775 -0.2111 0.2111 0.9775 -20.9174 72.9814)" class="st1" width="2" height="7.99"/>
		</g>
		<g>
			
				<rect x="335.35" y="130.47" transform="matrix(0.9775 -0.2111 0.2111 0.9775 -20.805 74.0234)" class="st1" width="2" height="7.99"/>
		</g>
		<g>
			
				<rect x="340.3" y="130.47" transform="matrix(0.9775 -0.2111 0.2111 0.9775 -20.6933 75.0697)" class="st1" width="2" height="7.99"/>
		</g>
		<g>
			
				<rect x="345.26" y="130.47" transform="matrix(0.9775 -0.2111 0.2111 0.9775 -20.5816 76.116)" class="st1" width="2" height="7.99"/>
		</g>
		<g>
			
				<rect x="350.22" y="130.47" transform="matrix(0.9775 -0.2111 0.2111 0.9775 -20.47 77.1627)" class="st1" width="2" height="7.99"/>
		</g>
		<g>
			<rect x="302.42" y="133.47" class="st1" width="2.92" height="2"/>
		</g>
	</g>
	<g>
		<g>
			<polygon class="st2" points="248.19,239.84 165.19,239.84 165.19,124.84 			"/>
		</g>
		<g>
			<polygon class="st3" points="212.62,221.53 182.67,221.53 182.67,180.03 			"/>
		</g>
		<g>
			<g>
				<rect x="165.19" y="230.57" class="st1" width="9.67" height="2"/>
			</g>
			<g>
				<rect x="165.19" y="222.68" class="st1" width="6.17" height="2"/>
			</g>
			<g>
				<rect x="165.19" y="214.78" class="st1" width="9.67" height="2"/>
			</g>
			<g>
				<rect x="165.19" y="206.89" class="st1" width="6.17" height="2"/>
			</g>
			<g>
				<rect x="165.19" y="199" class="st1" width="9.67" height="2"/>
			</g>
			<g>
				<rect x="165.19" y="191.11" class="st1" width="6.17" height="2"/>
			</g>
			<g>
				<rect x="165.19" y="183.21" class="st1" width="9.67" height="2"/>
			</g>
			<g>
				<rect x="165.19" y="175.32" class="st1" width="6.17" height="2"/>
			</g>
			<g>
				<rect x="165.19" y="167.43" class="st1" width="9.67" height="2"/>
			</g>
			<g>
				<rect x="165.19" y="159.54" class="st1" width="6.17" height="2"/>
			</g>
			<g>
				<rect x="165.19" y="151.64" class="st1" width="9.67" height="2"/>
			</g>
			<g>
				<rect x="165.19" y="143.75" class="st1" width="6.17" height="2"/>
			</g>
		</g>
	</g>
	<g>
		<g>
			
				<rect x="150.84" y="176.15" transform="matrix(-1.836970e-16 1 -1 -1.836970e-16 376.7177 -14.557)" class="st0" width="89.6" height="9.86"/>
			<path class="st1" d="M201.57,226.88H189.7v-91.6h11.86V226.88z M191.7,224.88h7.86v-87.6h-7.86V224.88z"/>
		</g>
		<g>
			<path class="st1" d="M199.01,241.04h-6.75c-1.41,0-2.56-1.15-2.56-2.56v-3.73c0-1.41,1.15-2.56,2.56-2.56h6.75
				c1.41,0,2.56,1.15,2.56,2.56v3.73C201.57,239.89,200.42,241.04,199.01,241.04z M192.26,234.19c-0.31,0-0.56,0.25-0.56,0.56v3.73
				c0,0.31,0.25,0.56,0.56,0.56h6.75c0.31,0,0.56-0.25,0.56-0.56v-3.73c0-0.31-0.25-0.56-0.56-0.56H192.26z"/>
		</g>
		<g>
			
				<rect x="191.75" y="226.12" transform="matrix(6.123234e-17 -1 1 6.123234e-17 -36.3251 427.5313)" class="st4" width="7.71" height="11.61"/>
		</g>
		<g>
			<rect x="194.64" y="137.1" class="st1" width="2" height="89.6"/>
		</g>
		<g>
			<path class="st1" d="M201.57,137.28H189.7v-4.35l5.93-12.07l5.93,12.07V137.28z M191.7,135.28h7.86v-1.88l-3.93-8l-3.93,8V135.28
				z"/>
		</g>
	</g>
	<g>
		<rect x="31.57" y="239.46" class="st1" width="717.12" height="2"/>
	</g>
	<g>
		<g>
			<g>
				<rect x="532.19" y="100.57" class="st5" width="65.81" height="139.07"/>
			</g>
			<g>
				<g>
					<rect x="545.78" y="117.77" class="st3" width="38.65" height="1"/>
				</g>
				<g>
					<rect x="545.78" y="135" class="st3" width="38.65" height="1"/>
				</g>
				<g>
					<rect x="545.78" y="152.22" class="st3" width="38.65" height="1"/>
				</g>
				<g>
					<rect x="545.78" y="169.45" class="st3" width="38.65" height="1"/>
				</g>
				<g>
					<rect x="545.78" y="186.68" class="st3" width="38.65" height="1"/>
				</g>
				<g>
					<rect x="545.78" y="203.91" class="st3" width="38.65" height="1"/>
				</g>
				<g>
					<rect x="545.78" y="221.14" class="st3" width="38.65" height="1"/>
				</g>
			</g>
			<g>
				<rect x="560.91" y="83.34" class="st5" width="8.38" height="17.23"/>
			</g>
		</g>
		<g>
			<g>
				<rect x="601.15" y="169.95" class="st5" width="45.17" height="69.69"/>
			</g>
			<g>
				<g>
					<rect x="613.84" y="181.99" class="st3" width="6.05" height="2"/>
				</g>
				<g>
					<rect x="627.57" y="181.99" class="st3" width="6.05" height="2"/>
				</g>
			</g>
			<g>
				<g>
					<rect x="613.84" y="197.74" class="st3" width="6.05" height="2"/>
				</g>
				<g>
					<rect x="627.57" y="197.74" class="st3" width="6.05" height="2"/>
				</g>
			</g>
			<g>
				<g>
					<rect x="613.84" y="213.5" class="st3" width="6.05" height="2"/>
				</g>
				<g>
					<rect x="627.57" y="213.5" class="st3" width="6.05" height="2"/>
				</g>
			</g>
		</g>
		<g>
			<g>
				<polygon class="st5" points="471.45,91.15 528.77,23.2 528.77,239.64 471.45,239.64 				"/>
			</g>
			<g>
				<rect x="500.11" y="79.88" class="st3" width="15.41" height="6.93"/>
			</g>
			<g>
				<rect x="500.11" y="102.93" class="st3" width="15.41" height="6.93"/>
			</g>
			<g>
				<rect x="500.11" y="125.98" class="st3" width="15.41" height="6.93"/>
			</g>
			<g>
				<rect x="500.11" y="149.03" class="st3" width="15.41" height="6.93"/>
			</g>
			<g>
				<rect x="500.11" y="172.08" class="st3" width="15.41" height="6.93"/>
			</g>
			<g>
				<rect x="500.11" y="195.13" class="st3" width="15.41" height="6.93"/>
			</g>
			<g>
				<rect x="500.11" y="218.17" class="st3" width="15.41" height="6.93"/>
			</g>
		</g>
		<g>
			<g>
				<polygon class="st5" points="428.9,132.9 389.8,175.13 389.8,175.13 389.8,239.54 468,239.54 468,175.13 				"/>
			</g>
			<g>
				<rect x="399.29" y="209.62" class="st3" width="16.9" height="17.11"/>
			</g>
			<g>
				<rect x="399.29" y="183.2" class="st3" width="16.9" height="17.11"/>
			</g>
			<g>
				<rect x="448.5" y="138.06" class="st5" width="11.86" height="29.33"/>
			</g>
			<g>
				<rect x="348.77" y="207.06" class="st5" width="41.03" height="32.48"/>
			</g>
			<g>
				
					<rect x="356.55" y="212.14" transform="matrix(6.123234e-17 -1 1 6.123234e-17 141.0668 582.4639)" class="st3" width="10.44" height="17.11"/>
			</g>
		</g>
	</g>
	<g>
		<g>
			<g>
				<path class="st3" d="M577.86,226.73v9.62c0,1.72-1.41,3.13-3.13,3.13h-2.61c-1.72,0-3.13-1.41-3.13-3.13v-9.62
					c0-1.72,1.41-3.13,3.13-3.13h2.61C576.45,223.61,577.86,225.01,577.86,226.73z"/>
				<path class="st1" d="M574.73,240.49h-2.61c-2.28,0-4.13-1.85-4.13-4.13v-9.63c0-2.28,1.85-4.13,4.13-4.13h2.61
					c2.28,0,4.13,1.85,4.13,4.13v9.63C578.86,238.63,577,240.49,574.73,240.49z M572.12,224.61c-1.17,0-2.13,0.95-2.13,2.13v9.63
					c0,1.17,0.95,2.13,2.13,2.13h2.61c1.17,0,2.13-0.95,2.13-2.13v-9.63c0-1.17-0.95-2.13-2.13-2.13H572.12z"/>
			</g>
			<g>
				
					<rect x="568.95" y="208.03" transform="matrix(6.123234e-17 -1 1 6.123234e-17 360.9662 785.8839)" class="st3" width="8.96" height="8.86"/>
				<path class="st1" d="M578.86,217.94h-10.86v-10.96h10.86V217.94z M569.99,215.94h6.86v-6.96h-6.86V215.94z"/>
			</g>
			<g>
				
					<rect x="561.53" y="218.21" transform="matrix(6.123234e-17 -1 1 6.123234e-17 349.5758 797.2741)" class="st0" width="23.8" height="11.28"/>
			</g>
			<g>
				
					<rect x="569.38" y="200.78" transform="matrix(6.123234e-17 -1 1 6.123234e-17 369.4894 777.3606)" class="st3" width="8.09" height="6.31"/>
				<path class="st1" d="M577.58,208.98h-8.31v-10.09h8.31V208.98z M571.27,206.98h4.31v-6.09h-4.31V206.98z"/>
			</g>
			<g>
				<rect x="569.9" y="215.03" class="st3" width="2" height="17.88"/>
			</g>
		</g>
		<g>
			<g>
				<circle class="st3" cx="573.42" cy="181.71" r="18.7"/>
				<path class="st1" d="M573.43,201.4c-10.86,0-19.7-8.84-19.7-19.7c0-10.86,8.84-19.7,19.7-19.7c10.86,0,19.7,8.84,19.7,19.7
					C593.12,192.57,584.29,201.4,573.43,201.4z M573.43,164.01c-9.76,0-17.7,7.94-17.7,17.7s7.94,17.7,17.7,17.7
					c9.76,0,17.7-7.94,17.7-17.7S583.18,164.01,573.43,164.01z"/>
			</g>
			<g>
				
					<ellipse transform="matrix(0.2191 -0.9757 0.9757 0.2191 270.4781 701.3788)" class="st4" cx="573.42" cy="181.71" rx="14.43" ry="14.43"/>
			</g>
			<g>
				<path class="st3" d="M563.45,181.71h-2c0-6.61,5.37-11.98,11.98-11.98v2C567.92,171.73,563.45,176.21,563.45,181.71z"/>
			</g>
		</g>
	</g>
	<g>
		<g>
			<path class="st3" d="M238.53,240.16h-28.34c-1.18,0-2.14-0.96-2.14-2.14v-44.49c0-1.18,0.96-2.14,2.14-2.14h28.34
				c1.18,0,2.14,0.96,2.14,2.14v44.49C240.67,239.2,239.7,240.16,238.53,240.16z"/>
			<path class="st1" d="M238.53,241.16h-28.34c-1.73,0-3.14-1.41-3.14-3.14v-44.49c0-1.73,1.41-3.14,3.14-3.14h28.34
				c1.73,0,3.14,1.41,3.14,3.14v44.49C241.67,239.76,240.26,241.16,238.53,241.16z M210.19,192.4c-0.63,0-1.14,0.51-1.14,1.14v44.49
				c0,0.63,0.51,1.14,1.14,1.14h28.34c0.63,0,1.14-0.51,1.14-1.14v-44.49c0-0.63-0.51-1.14-1.14-1.14H210.19z"/>
		</g>
		<g>
			<rect x="210.68" y="198.01" class="st4" width="27.36" height="6.49"/>
		</g>
		<g>
			<g>
				<g>
					<rect x="210.68" y="209.47" class="st1" width="4.66" height="2"/>
				</g>
				<g>
					<rect x="218.25" y="209.5" class="st1" width="4.66" height="2"/>
				</g>
				<g>
					<rect x="225.81" y="209.5" class="st1" width="4.66" height="2"/>
				</g>
				<g>
					<rect x="233.38" y="209.5" class="st1" width="4.66" height="2"/>
				</g>
			</g>
			<g>
				<g>
					<rect x="210.68" y="214.66" class="st1" width="4.66" height="2"/>
				</g>
				<g>
					<rect x="218.25" y="214.69" class="st1" width="4.66" height="2"/>
				</g>
				<g>
					<rect x="225.81" y="214.69" class="st1" width="4.66" height="2"/>
				</g>
				<g>
					<rect x="233.38" y="214.69" class="st1" width="4.66" height="2"/>
				</g>
			</g>
			<g>
				<g>
					<rect x="210.68" y="219.84" class="st1" width="4.66" height="2"/>
				</g>
				<g>
					<rect x="218.25" y="219.88" class="st1" width="4.66" height="2"/>
				</g>
				<g>
					<rect x="225.81" y="219.88" class="st1" width="4.66" height="2"/>
				</g>
				<g>
					<rect x="233.38" y="219.88" class="st1" width="4.66" height="2"/>
				</g>
			</g>
			<g>
				<g>
					<rect x="210.68" y="225.03" class="st1" width="4.66" height="2"/>
				</g>
				<g>
					<rect x="218.25" y="225.06" class="st1" width="4.66" height="2"/>
				</g>
				<g>
					<rect x="225.81" y="225.06" class="st1" width="4.66" height="2"/>
				</g>
				<g>
					<rect x="233.38" y="225.06" class="st1" width="4.66" height="2"/>
				</g>
			</g>
			<g>
				<g>
					<rect x="210.68" y="230.21" class="st1" width="4.66" height="2"/>
				</g>
				<g>
					<rect x="218.25" y="230.25" class="st1" width="4.66" height="2"/>
				</g>
				<g>
					<rect x="225.81" y="230.25" class="st1" width="4.66" height="2"/>
				</g>
				<g>
					<rect x="233.38" y="230.25" class="st1" width="4.66" height="2"/>
				</g>
			</g>
		</g>
		<g>
			<rect x="208.06" y="235.19" class="st1" width="32.61" height="2"/>
		</g>
	</g>
	<g>
		<rect x="434.45" y="112.07" class="st0" width="7.99" height="7.99"/>
	</g>
	<g>
		<g>
			<rect x="449.86" y="92.46" class="st1" width="17.99" height="2"/>
		</g>
		<g>
			<rect x="472.92" y="92.46" class="st1" width="3.69" height="2"/>
		</g>
		<g>
			<rect x="459.21" y="100.96" class="st1" width="24.53" height="2"/>
		</g>
	</g>
	<g>
		<g>
			<g>
				
					<rect x="711.53" y="160.77" transform="matrix(0.707 -0.7072 0.7072 0.707 93.7976 551.5095)" class="st1" width="2" height="3.56"/>
			</g>
			<g>
				
					<rect x="716.71" y="165.94" transform="matrix(0.7072 -0.707 0.707 0.7072 91.5761 556.5571)" class="st1" width="2" height="3.56"/>
			</g>
		</g>
		<g>
			<g>
				
					<rect x="710.75" y="166.72" transform="matrix(0.7071 -0.7071 0.7071 0.7071 90.0995 552.9611)" class="st1" width="3.56" height="2"/>
			</g>
			<g>
				
					<rect x="715.93" y="161.55" transform="matrix(0.7071 -0.7071 0.7071 0.7071 95.2728 555.104)" class="st1" width="3.56" height="2"/>
			</g>
		</g>
	</g>
	<g>
		<g>
			<g>
				<g>
					<g>
						<g>
							<g>
								<path class="st1" d="M413.19,96.93l-0.95-1.64c0,0,0.11-0.06,0.27-0.17c0.08-0.06,0.16-0.12,0.26-0.19
									c0.09-0.08,0.18-0.16,0.27-0.25c0.08-0.09,0.17-0.19,0.25-0.27c0.07-0.09,0.14-0.18,0.19-0.26
									c0.11-0.16,0.17-0.27,0.17-0.27l1.64,0.95c0,0-0.09,0.16-0.25,0.4c-0.08,0.11-0.18,0.24-0.29,0.39
									c-0.12,0.13-0.24,0.27-0.37,0.41c-0.14,0.13-0.28,0.25-0.41,0.37c-0.14,0.11-0.27,0.2-0.39,0.29
									C413.36,96.84,413.19,96.93,413.19,96.93z"/>
							</g>
						</g>
					</g>
					<g>
						<g>
							<g>
								<path class="st1" d="M407.45,96.93l0.95-1.64c0,0,0.03,0.02,0.07,0.05c0.05,0.03,0.12,0.06,0.21,0.1
									c0.08,0.04,0.18,0.09,0.3,0.13c0.11,0.04,0.23,0.09,0.35,0.11c0.24,0.07,0.49,0.1,0.68,0.12c0.19,0.01,0.32,0.02,0.32,0.02
									v1.9c0,0-0.19-0.01-0.47-0.02c-0.28-0.03-0.66-0.07-1.02-0.18c-0.18-0.04-0.36-0.11-0.53-0.17
									c-0.17-0.06-0.32-0.12-0.44-0.19C407.61,97.03,407.45,96.93,407.45,96.93z"/>
							</g>
						</g>
					</g>
					<g>
						<g>
							<g>
								<path class="st1" d="M404.57,91.96h1.9c0,0,0.01,0.13,0.02,0.32c0.02,0.19,0.05,0.44,0.12,0.68
									c0.03,0.12,0.07,0.24,0.11,0.35c0.04,0.11,0.08,0.21,0.13,0.3c0.04,0.08,0.07,0.16,0.1,0.21c0.03,0.05,0.05,0.07,0.05,0.07
									l-1.64,0.95c0,0-0.1-0.16-0.22-0.42c-0.06-0.13-0.13-0.28-0.19-0.44c-0.06-0.17-0.13-0.34-0.17-0.53
									c-0.1-0.36-0.15-0.74-0.18-1.02C404.58,92.15,404.57,91.96,404.57,91.96z"/>
							</g>
						</g>
					</g>
					<g>
						<g>
							<g>
								<path class="st1" d="M407.45,86.98l0.95,1.64c0,0-0.11,0.06-0.27,0.17c-0.08,0.06-0.16,0.12-0.26,0.19
									c-0.09,0.08-0.18,0.16-0.27,0.25c-0.08,0.09-0.17,0.19-0.25,0.27c-0.07,0.09-0.14,0.18-0.19,0.26
									c-0.11,0.16-0.17,0.27-0.17,0.27l-1.64-0.95c0,0,0.09-0.16,0.25-0.4c0.08-0.11,0.18-0.24,0.29-0.39
									c0.12-0.13,0.24-0.27,0.37-0.41c0.14-0.13,0.28-0.25,0.41-0.37c0.14-0.11,0.27-0.2,0.39-0.29
									C407.28,87.08,407.45,86.98,407.45,86.98z"/>
							</g>
						</g>
					</g>
					<g>
						<g>
							<g>
								<path class="st1" d="M413.19,86.98l-0.95,1.64c0,0-0.03-0.02-0.07-0.05c-0.05-0.03-0.12-0.06-0.2-0.1
									c-0.08-0.04-0.18-0.09-0.3-0.13c-0.11-0.04-0.23-0.09-0.35-0.11c-0.24-0.07-0.49-0.1-0.68-0.12
									c-0.19-0.01-0.32-0.02-0.32-0.02v-1.9c0,0,0.19,0.01,0.47,0.02c0.28,0.03,0.66,0.07,1.02,0.18
									c0.18,0.04,0.36,0.11,0.53,0.17c0.17,0.06,0.32,0.12,0.44,0.19C413.03,86.88,413.19,86.98,413.19,86.98z"/>
							</g>
						</g>
					</g>
					<g>
						<g>
							<g>
								<path class="st1" d="M416.07,91.96h-1.9c0,0-0.01-0.13-0.02-0.32c-0.02-0.19-0.05-0.44-0.12-0.68
									c-0.03-0.12-0.07-0.24-0.11-0.35c-0.04-0.11-0.08-0.21-0.13-0.3c-0.04-0.08-0.07-0.16-0.1-0.21
									c-0.03-0.05-0.05-0.07-0.05-0.07l1.64-0.95c0,0,0.1,0.16,0.22,0.42c0.06,0.13,0.13,0.28,0.19,0.44
									c0.06,0.17,0.13,0.34,0.17,0.53c0.1,0.36,0.15,0.74,0.18,1.02C416.06,91.77,416.07,91.96,416.07,91.96z"/>
							</g>
						</g>
					</g>
				</g>
			</g>
		</g>
	</g>
	<g>
		<g>
			<g>
				
					<rect x="79.14" y="123.92" transform="matrix(0.7072 -0.707 0.707 0.7072 -65.41 93.4726)" class="st1" width="2" height="3.56"/>
			</g>
			<g>
				
					<rect x="84.32" y="129.1" transform="matrix(0.7072 -0.707 0.707 0.7072 -67.5529 98.6452)" class="st1" width="2" height="3.56"/>
			</g>
		</g>
		<g>
			<g>
				
					<rect x="78.36" y="129.88" transform="matrix(0.7071 -0.7071 0.7071 0.7071 -69.0713 95.0023)" class="st1" width="3.56" height="2"/>
			</g>
			<g>
				
					<rect x="83.54" y="124.7" transform="matrix(0.7071 -0.7071 0.7071 0.7071 -63.898 97.1452)" class="st1" width="3.56" height="2"/>
			</g>
		</g>
	</g>
	<g>
		
			<rect x="338.54" y="153.64" transform="matrix(0.7071 -0.7071 0.7071 0.7071 -10.6274 287.1424)" class="st3" width="5.53" height="5.53"/>
		<path class="st6" d="M341.3,161.72l-5.32-5.32l5.32-5.32l5.32,5.32L341.3,161.72z M338.81,156.4l2.5,2.5l2.5-2.5l-2.5-2.5
			L338.81,156.4z"/>
	</g>
	<g>
		<g>
			<rect x="680.57" y="135.17" class="st6" width="2" height="10.87"/>
		</g>
		<g>
			<rect x="676.14" y="139.6" class="st6" width="10.87" height="2"/>
		</g>
	</g>
	<g>
		<g>
			<path class="st1" d="M51.22,171.37h-2c0-0.27-0.22-0.49-0.49-0.49c-0.27,0-0.49,0.22-0.49,0.49h-2c0-1.38,1.12-2.49,2.49-2.49
				S51.22,169.99,51.22,171.37z"/>
		</g>
		<g>
			<path class="st1" d="M45.74,173.66c-1.38,0-2.49-1.12-2.49-2.49h2c0,0.27,0.22,0.49,0.49,0.49c0.27,0,0.49-0.22,0.49-0.49h2
				C48.23,172.54,47.11,173.66,45.74,173.66z"/>
		</g>
		<g>
			<path class="st1" d="M51.72,173.66c-1.38,0-2.49-1.12-2.49-2.49h2c0,0.27,0.22,0.49,0.49,0.49c0.27,0,0.49-0.22,0.49-0.49h2
				C54.21,172.54,53.09,173.66,51.72,173.66z"/>
		</g>
		<g>
			<path class="st1" d="M57.7,173.66c-1.38,0-2.49-1.12-2.49-2.49h2c0,0.27,0.22,0.49,0.49,0.49c0.27,0,0.49-0.22,0.49-0.49h2
				C60.19,172.54,59.07,173.66,57.7,173.66z"/>
		</g>
		<g>
			<path class="st1" d="M57.2,171.37h-2c0-0.27-0.22-0.49-0.49-0.49c-0.27,0-0.49,0.22-0.49,0.49h-2c0-1.38,1.12-2.49,2.49-2.49
				S57.2,169.99,57.2,171.37z"/>
		</g>
		<g>
			<path class="st1" d="M63.18,171.37h-2c0-0.27-0.22-0.49-0.49-0.49c-0.27,0-0.49,0.22-0.49,0.49h-2c0-1.38,1.12-2.49,2.49-2.49
				C62.06,168.87,63.18,169.99,63.18,171.37z"/>
		</g>
	</g>
	<g>
		<polygon class="st5" points="208.42,97.71 208.42,92.4 213.01,95.05 217.6,97.71 213.01,100.36 208.42,103.01 		"/>
	</g>
	<g>
		<g>
			<g>
				<g>
					<g>
						<g>
							<g>
								<rect x="585.69" y="127.51" class="st1" width="2" height="2.67"/>
							</g>
						</g>
						<g>
							<g>
								<rect x="585.69" y="122.17" class="st1" width="2" height="2.67"/>
							</g>
						</g>
						<g>
							<g>
								<rect x="590.61" y="117.25" class="st1" width="2.67" height="2"/>
							</g>
						</g>
						<g>
							<g>
								<rect x="595.95" y="117.25" class="st1" width="2.67" height="2"/>
							</g>
						</g>
						<g>
							<g>
								<rect x="601.54" y="122.17" class="st1" width="2" height="2.67"/>
							</g>
						</g>
						<g>
							<g>
								<rect x="601.54" y="127.51" class="st1" width="2" height="2.67"/>
							</g>
						</g>
						<g>
							<g>
								<rect x="595.95" y="133.11" class="st1" width="2.67" height="2"/>
							</g>
						</g>
						<g>
							<g>
								<rect x="590.61" y="133.11" class="st1" width="2.67" height="2"/>
							</g>
						</g>
						<g>
							<defs>
								<polygon id="SVGID_1_" points="597.69,129.5 597.69,129.25 575.69,107.25 575.69,129.5 								"/>
							</defs>
							<clipPath id="SVGID_2_">
								<use xlink:href="#SVGID_1_"  style="overflow:visible;"/>
							</clipPath>
							<g class="st7">
								<rect x="585.69" y="117" class="st1" width="2" height="2.5"/>
							</g>
						</g>
						<g>
							<defs>
								<polygon id="SVGID_3_" points="597.94,129.25 597.69,129.25 575.69,107.25 597.94,107.25 								"/>
							</defs>
							<clipPath id="SVGID_4_">
								<use xlink:href="#SVGID_3_"  style="overflow:visible;"/>
							</clipPath>
							<g class="st8">
								<rect x="585.44" y="117.25" class="st1" width="2.5" height="2"/>
							</g>
						</g>
						<g>
							<defs>
								<polygon id="SVGID_5_" points="591.29,129.25 591.54,129.25 613.54,107.25 591.29,107.25 								"/>
							</defs>
							<clipPath id="SVGID_6_">
								<use xlink:href="#SVGID_5_"  style="overflow:visible;"/>
							</clipPath>
							<g class="st9">
								<rect x="601.29" y="117.25" class="st1" width="2.5" height="2"/>
							</g>
						</g>
						<g>
							<defs>
								<polygon id="SVGID_7_" points="591.54,129.5 591.54,129.25 613.54,107.25 613.54,129.5 								"/>
							</defs>
							<clipPath id="SVGID_8_">
								<use xlink:href="#SVGID_7_"  style="overflow:visible;"/>
							</clipPath>
							<g class="st10">
								<rect x="601.54" y="117" class="st1" width="2" height="2.5"/>
							</g>
						</g>
						<g>
							<defs>
								<polygon id="SVGID_9_" points="591.54,122.86 591.54,123.11 613.54,145.11 613.54,122.86 								"/>
							</defs>
							<clipPath id="SVGID_10_">
								<use xlink:href="#SVGID_9_"  style="overflow:visible;"/>
							</clipPath>
							<g class="st11">
								<rect x="601.54" y="132.86" class="st1" width="2" height="2.5"/>
							</g>
						</g>
						<g>
							<defs>
								<polygon id="SVGID_11_" points="591.29,123.11 591.54,123.11 613.54,145.11 591.29,145.11 								"/>
							</defs>
							<clipPath id="SVGID_12_">
								<use xlink:href="#SVGID_11_"  style="overflow:visible;"/>
							</clipPath>
							<g class="st12">
								<rect x="601.29" y="133.11" class="st1" width="2.5" height="2"/>
							</g>
						</g>
						<g>
							<defs>
								<polygon id="SVGID_13_" points="597.94,123.11 597.69,123.11 575.69,145.11 597.94,145.11 								"/>
							</defs>
							<clipPath id="SVGID_14_">
								<use xlink:href="#SVGID_13_"  style="overflow:visible;"/>
							</clipPath>
							<g class="st13">
								<rect x="585.44" y="133.11" class="st1" width="2.5" height="2"/>
							</g>
						</g>
						<g>
							<defs>
								<polygon id="SVGID_15_" points="597.69,122.86 597.69,123.11 575.69,145.11 575.69,122.86 								"/>
							</defs>
							<clipPath id="SVGID_16_">
								<use xlink:href="#SVGID_15_"  style="overflow:visible;"/>
							</clipPath>
							<g class="st14">
								<rect x="585.69" y="132.86" class="st1" width="2" height="2.5"/>
							</g>
						</g>
					</g>
				</g>
			</g>
		</g>
		<g>
			<rect x="600.54" y="116.25" class="st3" width="4" height="4"/>
			<path class="st1" d="M605.54,121.25h-6v-6h6V121.25z M601.54,119.25h2v-2h-2V119.25z"/>
		</g>
		<g>
			<rect x="600.54" y="132.11" class="st3" width="4" height="4"/>
			<path class="st1" d="M605.54,137.11h-6v-6h6V137.11z M601.54,135.11h2v-2h-2V135.11z"/>
		</g>
		<g>
			<rect x="584.69" y="132.11" class="st3" width="4" height="4"/>
			<path class="st1" d="M589.69,137.11h-6v-6h6V137.11z M585.69,135.11h2v-2h-2V135.11z"/>
		</g>
		<g>
			<rect x="584.69" y="116.25" class="st3" width="4" height="4"/>
			<path class="st1" d="M589.69,121.25h-6v-6h6V121.25z M585.69,119.25h2v-2h-2V119.25z"/>
		</g>
	</g>
	<g>
		<g>
			<rect x="130.68" y="127.29" class="st1" width="4.54" height="2"/>
		</g>
		<g>
			<rect x="137.62" y="127.29" class="st1" width="4.54" height="2"/>
		</g>
		<g>
			<rect x="144.69" y="127.29" class="st1" width="4.54" height="2"/>
		</g>
	</g>
	<g>
		<g>
			<rect x="106.76" y="136.52" class="st1" width="21.6" height="2"/>
		</g>
		<g>
			<rect x="130.68" y="136.52" class="st1" width="4.54" height="2"/>
		</g>
	</g>
	<g>
		<g>
			<path class="st1" d="M526.4,70.47h-2c0-0.27-0.22-0.49-0.49-0.49c-0.27,0-0.5,0.22-0.5,0.49h-2c0-1.38,1.12-2.49,2.5-2.49
				C525.28,67.97,526.4,69.09,526.4,70.47z"/>
		</g>
		<g>
			<path class="st1" d="M520.92,72.76c-1.38,0-2.5-1.12-2.5-2.49h2c0,0.27,0.22,0.49,0.5,0.49c0.27,0,0.49-0.22,0.49-0.49h2
				C523.41,71.64,522.29,72.76,520.92,72.76z"/>
		</g>
		<g>
			<path class="st1" d="M526.9,72.76c-1.38,0-2.5-1.12-2.5-2.49h2c0,0.27,0.22,0.49,0.5,0.49c0.27,0,0.49-0.22,0.49-0.49h2
				C529.39,71.64,528.27,72.76,526.9,72.76z"/>
		</g>
		<g>
			<path class="st1" d="M532.87,72.76c-1.38,0-2.49-1.12-2.49-2.49h2c0,0.27,0.22,0.49,0.49,0.49c0.27,0,0.5-0.22,0.5-0.49h2
				C535.37,71.64,534.25,72.76,532.87,72.76z"/>
		</g>
		<g>
			<path class="st1" d="M532.38,70.47h-2c0-0.27-0.22-0.49-0.5-0.49c-0.27,0-0.5,0.22-0.5,0.49h-2c0-1.38,1.12-2.49,2.5-2.49
				C531.26,67.97,532.38,69.09,532.38,70.47z"/>
		</g>
		<g>
			<path class="st1" d="M538.36,70.47h-2c0-0.27-0.22-0.49-0.5-0.49c-0.27,0-0.49,0.22-0.49,0.49h-2c0-1.38,1.12-2.49,2.49-2.49
				C537.24,67.97,538.36,69.09,538.36,70.47z"/>
		</g>
	</g>
	<g>
		<g>
			<g>
				<g>
					<g>
						<g>
							<rect x="73.92" y="248.1" class="st15" width="4.41" height="2"/>
						</g>
					</g>
					<g>
						<g>
							<rect x="82.73" y="248.1" class="st15" width="4.41" height="2"/>
						</g>
					</g>
					<g>
						<g>
							<rect x="91.54" y="248.1" class="st15" width="4.41" height="2"/>
						</g>
					</g>
					<g>
						<g>
							<rect x="100.36" y="248.1" class="st15" width="4.41" height="2"/>
						</g>
					</g>
					<g>
						<g>
							<rect x="109.17" y="248.1" class="st15" width="4.41" height="2"/>
						</g>
					</g>
					<g>
						<g>
							<rect x="117.98" y="248.1" class="st15" width="4.41" height="2"/>
						</g>
					</g>
					<g>
						<g>
							<rect x="126.8" y="248.1" class="st15" width="4.41" height="2"/>
						</g>
					</g>
					<g>
						<g>
							<rect x="135.61" y="248.1" class="st15" width="4.41" height="2"/>
						</g>
					</g>
					<g>
						<g>
							<rect x="144.42" y="248.1" class="st15" width="4.41" height="2"/>
						</g>
					</g>
					<g>
						<g>
							<rect x="153.24" y="248.1" class="st15" width="4.41" height="2"/>
						</g>
					</g>
					<g>
						<g>
							<rect x="162.05" y="248.1" class="st15" width="4.41" height="2"/>
						</g>
					</g>
					<g>
						<g>
							<rect x="170.86" y="248.1" class="st15" width="4.41" height="2"/>
						</g>
					</g>
					<g>
						<g>
							<rect x="179.68" y="248.1" class="st15" width="4.41" height="2"/>
						</g>
					</g>
					<g>
						<g>
							<rect x="188.49" y="248.1" class="st15" width="4.41" height="2"/>
						</g>
					</g>
					<g>
						<g>
							<rect x="197.3" y="248.1" class="st15" width="4.41" height="2"/>
						</g>
					</g>
					<g>
						<g>
							<rect x="206.12" y="248.1" class="st15" width="4.41" height="2"/>
						</g>
					</g>
					<g>
						<g>
							<rect x="214.93" y="248.1" class="st15" width="4.41" height="2"/>
						</g>
					</g>
					<g>
						<g>
							<rect x="223.74" y="248.1" class="st15" width="4.41" height="2"/>
						</g>
					</g>
					<g>
						<g>
							<rect x="232.56" y="248.1" class="st15" width="4.41" height="2"/>
						</g>
					</g>
					<g>
						<g>
							<rect x="241.37" y="248.1" class="st15" width="4.41" height="2"/>
						</g>
					</g>
					<g>
						<g>
							<rect x="250.18" y="248.1" class="st15" width="4.41" height="2"/>
						</g>
					</g>
					<g>
						<g>
							<rect x="259" y="248.1" class="st15" width="4.41" height="2"/>
						</g>
					</g>
				</g>
			</g>
		</g>
	</g>
	<g>
		<rect x="223.69" y="253.14" class="st1" width="196.12" height="2"/>
	</g>
	<g>
		<g>
			<g>
				<g>
					<g>
						<g>
							<rect x="549.53" y="253.14" class="st15" width="4.51" height="2"/>
						</g>
					</g>
					<g>
						<g>
							<rect x="558.54" y="253.14" class="st15" width="4.51" height="2"/>
						</g>
					</g>
					<g>
						<g>
							<rect x="567.56" y="253.14" class="st15" width="4.51" height="2"/>
						</g>
					</g>
					<g>
						<g>
							<rect x="576.58" y="253.14" class="st15" width="4.51" height="2"/>
						</g>
					</g>
					<g>
						<g>
							<rect x="585.6" y="253.14" class="st15" width="4.51" height="2"/>
						</g>
					</g>
					<g>
						<g>
							<rect x="594.61" y="253.14" class="st15" width="4.51" height="2"/>
						</g>
					</g>
					<g>
						<g>
							<rect x="603.63" y="253.14" class="st15" width="4.51" height="2"/>
						</g>
					</g>
					<g>
						<g>
							<rect x="612.65" y="253.14" class="st15" width="4.51" height="2"/>
						</g>
					</g>
					<g>
						<g>
							<rect x="621.67" y="253.14" class="st15" width="4.51" height="2"/>
						</g>
					</g>
					<g>
						<g>
							<rect x="630.69" y="253.14" class="st15" width="4.51" height="2"/>
						</g>
					</g>
					<g>
						<g>
							<rect x="639.7" y="253.14" class="st15" width="4.51" height="2"/>
						</g>
					</g>
					<g>
						<g>
							<rect x="648.72" y="253.14" class="st15" width="4.51" height="2"/>
						</g>
					</g>
					<g>
						<g>
							<rect x="657.74" y="253.14" class="st15" width="4.51" height="2"/>
						</g>
					</g>
					<g>
						<g>
							<rect x="666.76" y="253.14" class="st15" width="4.51" height="2"/>
						</g>
					</g>
					<g>
						<g>
							<rect x="675.77" y="253.14" class="st15" width="4.51" height="2"/>
						</g>
					</g>
					<g>
						<g>
							<rect x="684.79" y="253.14" class="st15" width="4.51" height="2"/>
						</g>
					</g>
					<g>
						<g>
							<rect x="693.81" y="253.14" class="st15" width="4.51" height="2"/>
						</g>
					</g>
					<g>
						<g>
							<rect x="702.83" y="253.14" class="st15" width="4.51" height="2"/>
						</g>
					</g>
					<g>
						<g>
							<rect x="711.84" y="253.14" class="st15" width="4.51" height="2"/>
						</g>
					</g>
				</g>
			</g>
		</g>
	</g>
	<g>
		<rect x="386.02" y="248.1" class="st1" width="196.12" height="2"/>
	</g>
	<g>
		<g>
			<path class="st1" d="M131.9,240.41H94.58c-3.25,0-5.89-2.64-5.89-5.89v-51.08c0-3.25,2.64-5.89,5.89-5.89h37.32
				c3.25,0,5.89,2.64,5.89,5.89v51.08C137.79,237.77,135.15,240.41,131.9,240.41z M94.58,179.55c-2.14,0-3.89,1.74-3.89,3.89v51.08
				c0,2.14,1.74,3.89,3.89,3.89h37.32c2.14,0,3.89-1.74,3.89-3.89v-51.08c0-2.14-1.74-3.89-3.89-3.89H94.58z"/>
		</g>
		<g>
			<rect x="93.13" y="182.72" class="st2" width="40.21" height="52.52"/>
		</g>
		<g>
			<rect x="97.34" y="186.5" class="st3" width="31.8" height="44.95"/>
			<path class="st1" d="M130.14,232.46h-33.8V185.5h33.8V232.46z M98.34,230.46h29.8V187.5h-29.8V230.46z"/>
		</g>
		<g>
			<rect x="105.1" y="177.95" class="st4" width="16.28" height="10.55"/>
			<path class="st1" d="M122.38,189.5H104.1v-12.55h18.28V189.5z M106.1,187.5h14.28v-8.55H106.1V187.5z"/>
		</g>
		<g>
			<path class="st4" d="M117.37,177.95c0,2.28-1.85,4.13-4.13,4.13c-2.28,0-4.13-1.85-4.13-4.13s1.85-4.13,4.13-4.13
				C115.52,173.83,117.37,175.67,117.37,177.95z"/>
			<path class="st1" d="M113.24,183.08c-2.83,0-5.13-2.3-5.13-5.13c0-2.83,2.3-5.13,5.13-5.13c2.83,0,5.13,2.3,5.13,5.13
				C118.37,180.78,116.07,183.08,113.24,183.08z M113.24,174.83c-1.72,0-3.13,1.4-3.13,3.13c0,1.72,1.4,3.13,3.13,3.13
				c1.72,0,3.13-1.4,3.13-3.13C116.37,176.23,114.96,174.83,113.24,174.83z"/>
		</g>
		<g>
			<g>
				<polygon class="st1" points="104.57,202.2 101.45,199.39 102.78,197.9 104.25,199.22 107.73,194.39 109.35,195.56 				"/>
			</g>
			<g>
				<rect x="110.83" y="196.84" class="st1" width="13.53" height="2"/>
			</g>
			<g>
				<polygon class="st1" points="104.57,213.47 101.45,210.66 102.78,209.17 104.25,210.49 107.73,205.66 109.35,206.83 				"/>
			</g>
			<g>
				<rect x="110.83" y="208.11" class="st1" width="13.53" height="2"/>
			</g>
			<g>
				<polygon class="st1" points="104.57,224.48 101.45,221.67 102.78,220.18 104.25,221.5 107.73,216.67 109.35,217.84 				"/>
			</g>
			<g>
				<rect x="110.83" y="219.12" class="st1" width="13.53" height="2"/>
			</g>
		</g>
	</g>
	<g>
		<g>
			<polygon class="st0" points="56.47,225.96 58.01,219.83 72.29,212.81 73.24,217.71 			"/>
		</g>
		<g>
			<polygon class="st0" points="56.93,236.74 54.81,232.42 73.77,223.09 75.4,227.67 			"/>
		</g>
		<g>
			<path class="st1" d="M78.26,236.19H53.45l6.67-30.83h11.47L78.26,236.19z M55.93,234.19h19.85l-5.8-26.83h-8.25L55.93,234.19z"/>
		</g>
		<g>
			<rect x="52.19" y="235.19" class="st3" width="27.33" height="4.67"/>
			<path class="st1" d="M80.52,240.86H51.19v-6.67h29.33V240.86z M53.19,238.86h25.33v-2.67H53.19V238.86z"/>
		</g>
		<g>
			<rect x="62.77" y="209.86" class="st1" width="6.17" height="2"/>
		</g>
	</g>
	<g>
		<g>
			<polygon class="st3" points="725.85,240.46 688.82,240.46 689.67,229.12 725,229.12 			"/>
			<path class="st1" d="M726.93,241.46h-39.19l1-13.33h37.19L726.93,241.46z M689.9,239.46h34.88l-0.7-9.33H690.6L689.9,239.46z"/>
		</g>
		<g>
			<path class="st4" d="M693.85,194.32h26.96c1.55,0,2.83,1.22,2.89,2.77l1.17,27.87c0.07,1.65-1.25,3.02-2.89,3.02h-29.31
				c-1.65,0-2.96-1.37-2.89-3.02l1.17-27.87C691.02,195.54,692.29,194.32,693.85,194.32z"/>
		</g>
		<g>
			<path class="st3" d="M719.08,225.15c-0.53,0-0.98-0.42-1-0.96l-1-24.25c-0.02-0.55,0.41-1.02,0.96-1.04
				c0.54-0.02,1.02,0.41,1.04,0.96l1,24.25c0.02,0.55-0.41,1.02-0.96,1.04C719.11,225.15,719.09,225.15,719.08,225.15z"/>
		</g>
		<g>
			<rect x="712.74" y="233.29" class="st1" width="4.75" height="6.33"/>
		</g>
	</g>
	<g>
		<g>
			<rect x="322.84" y="152.87" class="st1" width="2" height="40.08"/>
		</g>
		<g>
			<rect x="318.58" y="191.24" class="st4" width="10.52" height="4.64"/>
		</g>
		<g>
			<path class="st4" d="M315.02,195.57v41.39c0,1.32,1.07,2.4,2.4,2.4h12.84c1.32,0,2.4-1.07,2.4-2.4v-41.39H315.02z"/>
		</g>
		<g>
			<rect x="315.02" y="194.57" class="st1" width="17.64" height="2"/>
		</g>
		<g>
			<g>
				<rect x="319.98" y="200.83" class="st1" width="2" height="34.2"/>
			</g>
			<g>
				<rect x="325.71" y="200.83" class="st1" width="2" height="34.2"/>
			</g>
		</g>
		<g>
			<path class="st1" d="M323.84,154.57l-4.59-6.32l1.52-9.96h6.13l1.52,9.96L323.84,154.57z M321.36,147.74l2.48,3.43l2.49-3.43
				l-1.14-7.45h-2.69L321.36,147.74z"/>
		</g>
	</g>
	<g>
		<g>
			<rect x="623.1" y="155.96" class="st1" width="2" height="85.57"/>
		</g>
		<g>
			<rect x="637.64" y="155.96" class="st1" width="2" height="85.57"/>
		</g>
		<g>
			<g>
				<rect x="628.57" y="160.83" class="st1" width="10.07" height="2"/>
			</g>
			<g>
				<rect x="628.57" y="168.16" class="st1" width="10.07" height="2"/>
			</g>
			<g>
				<rect x="628.57" y="175.48" class="st1" width="10.07" height="2"/>
			</g>
			<g>
				<rect x="628.57" y="182.81" class="st1" width="10.07" height="2"/>
			</g>
			<g>
				<rect x="628.57" y="190.14" class="st1" width="10.07" height="2"/>
			</g>
			<g>
				<rect x="628.57" y="197.46" class="st1" width="10.07" height="2"/>
			</g>
			<g>
				<rect x="628.57" y="204.79" class="st1" width="10.07" height="2"/>
			</g>
			<g>
				<rect x="628.57" y="212.12" class="st1" width="10.07" height="2"/>
			</g>
			<g>
				<rect x="628.57" y="219.44" class="st1" width="10.07" height="2"/>
			</g>
			<g>
				<rect x="628.57" y="226.77" class="st1" width="10.07" height="2"/>
			</g>
			<g>
				<rect x="628.57" y="234.09" class="st1" width="10.07" height="2"/>
			</g>
		</g>
	</g>
	<g>
		<g>
			<rect x="605.24" y="189.38" class="st3" width="3.67" height="50.17"/>
			<path class="st1" d="M609.9,240.55h-5.67v-52.17h5.67V240.55z M606.24,238.55h1.67v-48.17h-1.67V238.55z"/>
		</g>
		<g>
			<rect x="669.24" y="189.38" class="st3" width="3.67" height="50.17"/>
			<path class="st1" d="M673.91,240.55h-5.67v-52.17h5.67V240.55z M670.24,238.55h1.67v-48.17h-1.67V238.55z"/>
		</g>
		<g>
			<path class="st3" d="M677.74,219.38h-77.33c-2.12,0-3.83-1.72-3.83-3.83v-12.83c0-2.12,1.72-3.83,3.83-3.83h77.33
				c2.12,0,3.83,1.72,3.83,3.83v12.83C681.57,217.67,679.86,219.38,677.74,219.38z"/>
			<path class="st1" d="M677.74,220.38H600.4c-2.67,0-4.83-2.17-4.83-4.83v-12.83c0-2.67,2.17-4.83,4.83-4.83h77.33
				c2.67,0,4.83,2.17,4.83,4.83v12.83C682.57,218.21,680.4,220.38,677.74,220.38z M600.4,199.88c-1.56,0-2.83,1.27-2.83,2.83v12.83
				c0,1.56,1.27,2.83,2.83,2.83h77.33c1.56,0,2.83-1.27,2.83-2.83v-12.83c0-1.56-1.27-2.83-2.83-2.83H600.4z"/>
		</g>
		<g>
			<defs>
				<path id="SVGID_17_" d="M677.74,219.38h-77.33c-2.12,0-3.83-1.72-3.83-3.83v-12.83c0-2.12,1.72-3.83,3.83-3.83h77.33
					c2.12,0,3.83,1.72,3.83,3.83v12.83C681.57,217.67,679.86,219.38,677.74,219.38z"/>
			</defs>
			<clipPath id="SVGID_18_">
				<use xlink:href="#SVGID_17_"  style="overflow:visible;"/>
			</clipPath>
			<g class="st16">
				<g>
					<g>
						
							<rect x="598.15" y="194.38" transform="matrix(0.8095 0.5871 -0.5871 0.8095 237.3917 -313.4307)" class="st0" width="7.17" height="29.5"/>
					</g>
					<g>
						<path class="st1" d="M596.19,224.57l-7.42-5.38l18.49-25.5l7.42,5.38L596.19,224.57z M591.57,218.75l4.18,3.03l16.14-22.26
							l-4.18-3.03L591.57,218.75z"/>
					</g>
				</g>
				<g>
					<g>
						
							<rect x="616.68" y="194.38" transform="matrix(0.8095 0.5871 -0.5871 0.8095 240.9222 -324.3123)" class="st0" width="7.17" height="29.5"/>
					</g>
					<g>
						<path class="st1" d="M614.73,224.57l-7.42-5.38l18.49-25.5l7.42,5.38L614.73,224.57z M610.1,218.75l4.18,3.03l16.14-22.26
							l-4.18-3.03L610.1,218.75z"/>
					</g>
				</g>
				<g>
					<g>
						
							<rect x="635.22" y="194.38" transform="matrix(0.8095 0.5871 -0.5871 0.8095 244.4482 -335.1908)" class="st0" width="7.17" height="29.5"/>
					</g>
					<g>
						<path class="st1" d="M633.26,224.57l-7.42-5.38l18.49-25.5l7.42,5.38L633.26,224.57z M628.64,218.75l4.18,3.03l16.14-22.26
							l-4.18-3.03L628.64,218.75z"/>
					</g>
				</g>
				<g>
					<g>
						
							<rect x="653.75" y="194.38" transform="matrix(0.8095 0.5871 -0.5871 0.8095 247.9831 -346.0757)" class="st0" width="7.17" height="29.5"/>
					</g>
					<g>
						<path class="st1" d="M651.8,224.57l-7.42-5.38l18.49-25.5l7.42,5.38L651.8,224.57z M647.17,218.75l4.18,3.03l16.14-22.26
							l-4.18-3.03L647.17,218.75z"/>
					</g>
				</g>
				<g>
					<g>
						
							<rect x="672.29" y="194.38" transform="matrix(0.8095 0.5871 -0.5871 0.8095 251.5128 -356.9568)" class="st0" width="7.17" height="29.5"/>
					</g>
					<g>
						<path class="st1" d="M670.33,224.57l-7.42-5.38l18.49-25.5l7.42,5.38L670.33,224.57z M665.71,218.75l4.18,3.03l16.14-22.26
							l-4.18-3.03L665.71,218.75z"/>
					</g>
				</g>
			</g>
		</g>
		<g>
			<g>
				<path class="st1" d="M677.74,220.38H600.4c-2.67,0-4.83-2.17-4.83-4.83v-12.83c0-2.67,2.17-4.83,4.83-4.83h77.33
					c2.67,0,4.83,2.17,4.83,4.83v12.83C682.57,218.21,680.4,220.38,677.74,220.38z M600.4,199.88c-1.56,0-2.83,1.27-2.83,2.83v12.83
					c0,1.56,1.27,2.83,2.83,2.83h77.33c1.56,0,2.83-1.27,2.83-2.83v-12.83c0-1.56-1.27-2.83-2.83-2.83H600.4z"/>
			</g>
		</g>
		<g>
			<path class="st4" d="M611.15,189.38c0,2.26-1.83,4.08-4.08,4.08s-4.08-1.83-4.08-4.08c0-2.26,1.83-4.08,4.08-4.08
				S611.15,187.13,611.15,189.38z"/>
			<path class="st1" d="M607.07,194.47c-2.8,0-5.08-2.28-5.08-5.08c0-2.8,2.28-5.08,5.08-5.08c2.8,0,5.08,2.28,5.08,5.08
				C612.15,192.19,609.87,194.47,607.07,194.47z M607.07,186.3c-1.7,0-3.08,1.38-3.08,3.08c0,1.7,1.38,3.08,3.08,3.08
				s3.08-1.38,3.08-3.08C610.15,187.68,608.77,186.3,607.07,186.3z"/>
		</g>
		<g>
			<path class="st4" d="M675.16,189.38c0,2.26-1.83,4.08-4.08,4.08s-4.08-1.83-4.08-4.08c0-2.26,1.83-4.08,4.08-4.08
				S675.16,187.13,675.16,189.38z"/>
			<path class="st1" d="M671.07,194.47c-2.8,0-5.08-2.28-5.08-5.08c0-2.8,2.28-5.08,5.08-5.08c2.8,0,5.08,2.28,5.08,5.08
				C676.16,192.19,673.88,194.47,671.07,194.47z M671.07,186.3c-1.7,0-3.08,1.38-3.08,3.08c0,1.7,1.38,3.08,3.08,3.08
				s3.08-1.38,3.08-3.08C674.16,187.68,672.77,186.3,671.07,186.3z"/>
		</g>
		<g>
			<g>
				<rect x="606.07" y="176.58" class="st1" width="2" height="5"/>
			</g>
			<g>
				
					<rect x="610.71" y="179.57" transform="matrix(0.7071 -0.7071 0.7071 0.7071 51.9125 486.4687)" class="st1" width="5" height="2"/>
			</g>
			<g>
				
					<rect x="600.04" y="178.07" transform="matrix(0.707 -0.7072 0.7072 0.707 48.4034 477.9674)" class="st1" width="2" height="5"/>
			</g>
		</g>
		<g>
			<g>
				<rect x="670.02" y="176.58" class="st1" width="2" height="5"/>
			</g>
			<g>
				
					<rect x="674.65" y="179.57" transform="matrix(0.7071 -0.7071 0.7071 0.7071 70.641 531.6856)" class="st1" width="5" height="2"/>
			</g>
			<g>
				
					<rect x="663.99" y="178.07" transform="matrix(0.7071 -0.7071 0.7071 0.7071 67.0915 523.1078)" class="st1" width="2" height="5"/>
			</g>
		</g>
	</g>
	<g>
		<g>
			<path class="st3" d="M133.73,239.77c-2.32,0-4.41-1.2-5.57-3.21c-1.16-2.01-1.16-4.42,0-6.43l21.71-37.6
				c1.16-2.01,3.24-3.21,5.57-3.21c2.32,0,4.41,1.2,5.57,3.21l21.71,37.6c1.16,2.01,1.16,4.42,0,6.43
				c-1.16,2.01-3.24,3.21-5.57,3.21H133.73z"/>
			<path class="st1" d="M177.15,240.77h-43.41c-2.69,0-5.09-1.39-6.43-3.71c-1.34-2.33-1.34-5.1,0-7.43l21.71-37.6
				c1.34-2.33,3.75-3.71,6.43-3.71c2.69,0,5.09,1.39,6.43,3.71l21.71,37.6c1.34,2.33,1.34,5.1,0,7.43
				C182.24,239.38,179.83,240.77,177.15,240.77z M155.44,190.32c-1.96,0-3.72,1.01-4.7,2.71l-21.71,37.6c-0.98,1.7-0.98,3.73,0,5.43
				c0.98,1.7,2.74,2.71,4.7,2.71h43.41c1.96,0,3.72-1.01,4.7-2.71c0.98-1.7,0.98-3.73,0-5.43l-21.71-37.6
				C159.16,191.33,157.4,190.32,155.44,190.32z"/>
		</g>
		<g>
			<path class="st0" d="M130.9,231.71l21.71-37.6c1.26-2.18,4.4-2.18,5.66,0l21.71,37.6c1.26,2.18-0.31,4.9-2.83,4.9h-43.41
				C131.22,236.61,129.64,233.89,130.9,231.71z"/>
		</g>
		<g>
			<g>
				<path class="st1" d="M155.01,225.33l-2.02-19.47c0-0.08-0.01-0.2-0.02-0.37c-0.05-0.6-0.07-1-0.07-1.22
					c0-0.95,0.23-1.69,0.68-2.22c0.45-0.53,1.07-0.79,1.87-0.79c0.8,0,1.42,0.26,1.86,0.79c0.44,0.53,0.67,1.27,0.67,2.22
					c0,0.34-0.01,0.63-0.02,0.87c-0.02,0.24-0.04,0.48-0.07,0.71l-2.02,19.47H155.01z"/>
			</g>
			<g>
				<path class="st1" d="M152.99,229.82c0-0.7,0.24-1.3,0.71-1.78c0.47-0.48,1.07-0.72,1.79-0.72c0.67,0,1.25,0.24,1.74,0.73
					c0.49,0.49,0.73,1.08,0.73,1.77c0,0.69-0.25,1.28-0.73,1.77c-0.49,0.49-1.07,0.73-1.74,0.73c-0.69,0-1.28-0.25-1.77-0.75
					C153.24,231.08,152.99,230.49,152.99,229.82z"/>
			</g>
		</g>
	</g>
	<g>
		<g>
			<rect x="389.8" y="230.62" class="st0" width="19.66" height="9.64"/>
			<path class="st1" d="M410.46,241.26H388.8v-11.64h21.66V241.26z M390.8,239.26h17.66v-7.64H390.8V239.26z"/>
		</g>
		<g>
			<rect x="412.29" y="230.62" class="st0" width="19.66" height="9.64"/>
			<path class="st1" d="M432.96,241.26h-21.66v-11.64h21.66V241.26z M413.29,239.26h17.66v-7.64h-17.66V239.26z"/>
		</g>
		<g>
			<rect x="434.79" y="230.62" class="st0" width="19.66" height="9.64"/>
			<path class="st1" d="M455.46,241.26h-21.66v-11.64h21.66V241.26z M435.79,239.26h17.66v-7.64h-17.66V239.26z"/>
		</g>
		<g>
			<rect x="423.52" y="218.48" class="st0" width="19.66" height="9.64"/>
			<path class="st1" d="M444.18,229.12h-21.66v-11.64h21.66V229.12z M424.52,227.12h17.66v-7.64h-17.66V227.12z"/>
		</g>
		<g>
			<rect x="401.16" y="218.48" class="st0" width="19.66" height="9.64"/>
			<path class="st1" d="M421.82,229.12h-21.66v-11.64h21.66V229.12z M402.16,227.12h17.66v-7.64h-17.66V227.12z"/>
		</g>
		<g>
			<rect x="412.29" y="206.33" class="st0" width="19.66" height="9.64"/>
			<path class="st1" d="M432.96,216.97h-21.66v-11.64h21.66V216.97z M413.29,214.97h17.66v-7.64h-17.66V214.97z"/>
		</g>
	</g>
	<g>
		<g>
			<path class="st1" d="M258.81,182.88h-8.44c-0.55,0-1-0.45-1-1v-28.49c0-0.55,0.45-1,1-1h8.44c0.55,0,1,0.45,1,1v28.49
				C259.81,182.43,259.37,182.88,258.81,182.88z M251.37,180.88h6.44v-26.49h-6.44V180.88z"/>
		</g>
		<g>
			<path class="st0" d="M246.97,182.67v54.26c0,1.49,0.93,2.69,2.07,2.69h11.1c1.15,0,2.07-1.21,2.07-2.69v-54.26H246.97z"/>
		</g>
		<g>
			<rect x="246.97" y="181.67" class="st1" width="15.25" height="2"/>
		</g>
		<g>
			<rect x="253.59" y="188.76" class="st1" width="2" height="45.07"/>
		</g>
		<g>
			<path class="st1" d="M262.33,153.43h-15.37c-0.48,0-0.89-0.34-0.98-0.81c-0.43-2.19-2.35-3.78-4.58-3.78
				c-2.23,0-4.16,1.59-4.58,3.78c-0.09,0.47-0.5,0.81-0.98,0.81h-4.78c-2.09,0-3.78-1.7-3.78-3.78v-8.35c0-2.09,1.7-3.78,3.78-3.78
				h4.75c0.49,0,0.91,0.36,0.99,0.84c0.36,2.28,2.3,3.93,4.61,3.93c2.31,0,4.24-1.65,4.61-3.93c0.08-0.49,0.5-0.84,0.99-0.84h15.34
				c0.55,0,1,0.45,1,1v2.32c5.76,1.35,10.87,4.45,15.19,9.2c0.33,0.36,0.35,0.9,0.05,1.28c-0.29,0.38-0.82,0.5-1.25,0.28
				c-5.09-2.62-9.67-3.15-14-1.62v2.44C263.33,152.98,262.88,153.43,262.33,153.43z M247.73,151.43h13.6v-2.13
				c0-0.41,0.25-0.77,0.63-0.93c3.6-1.45,7.33-1.64,11.29-0.54c-3.34-2.63-7.06-4.38-11.11-5.21c-0.47-0.1-0.8-0.5-0.8-0.98v-2.13
				h-13.54c-0.82,2.81-3.39,4.77-6.39,4.77c-3,0-5.57-1.96-6.39-4.77h-3.95c-0.98,0-1.78,0.8-1.78,1.78v8.35
				c0,0.98,0.8,1.78,1.78,1.78h4.01c0.89-2.7,3.43-4.59,6.34-4.59C244.3,146.84,246.84,148.73,247.73,151.43z"/>
		</g>
	</g>
	<g>
		<g>
			<rect x="462.67" y="227.79" class="st0" width="70.45" height="12.09"/>
		</g>
		<g>
			<g>
				<rect x="465.8" y="227.79" class="st1" width="2" height="5.56"/>
			</g>
			<g>
				<rect x="469.69" y="227.79" class="st1" width="2" height="3.47"/>
			</g>
			<g>
				<rect x="473.59" y="227.79" class="st1" width="2" height="5.56"/>
			</g>
			<g>
				<rect x="477.48" y="227.79" class="st1" width="2" height="3.47"/>
			</g>
			<g>
				<rect x="481.37" y="227.79" class="st1" width="2" height="5.56"/>
			</g>
			<g>
				<rect x="485.27" y="227.79" class="st1" width="2" height="3.47"/>
			</g>
			<g>
				<rect x="489.16" y="227.79" class="st1" width="2" height="5.56"/>
			</g>
			<g>
				<rect x="493.05" y="227.79" class="st1" width="2" height="3.47"/>
			</g>
			<g>
				<rect x="496.95" y="227.79" class="st1" width="2" height="5.56"/>
			</g>
			<g>
				<rect x="500.84" y="227.79" class="st1" width="2" height="3.47"/>
			</g>
			<g>
				<rect x="504.73" y="227.79" class="st1" width="2" height="5.56"/>
			</g>
			<g>
				<rect x="508.63" y="227.79" class="st1" width="2" height="3.47"/>
			</g>
			<g>
				<rect x="512.52" y="227.79" class="st1" width="2" height="5.56"/>
			</g>
			<g>
				<rect x="516.41" y="227.79" class="st1" width="2" height="3.47"/>
			</g>
			<g>
				<rect x="520.31" y="227.79" class="st1" width="2" height="5.56"/>
			</g>
			<g>
				<rect x="524.2" y="227.79" class="st1" width="2" height="3.47"/>
			</g>
			<g>
				<rect x="528.09" y="227.79" class="st1" width="2" height="5.56"/>
			</g>
		</g>
	</g>
	<g>
		<path class="st3" d="M507.93,161.18l-5.64-2.89v-12c-4.2,2.08-7.09,6.4-7.09,11.4c0,4.92,2.8,9.19,6.89,11.31v48.36
			c-4.09,2.12-6.89,6.38-6.89,11.31c0,5,2.89,9.32,7.09,11.4v-12l5.64-2.89l5.64,2.89v12c4.2-2.08,7.09-6.4,7.09-11.4
			c0-4.91-2.78-9.17-6.86-11.29v-48.39c4.07-2.12,6.86-6.38,6.86-11.29c0-5-2.89-9.32-7.09-11.4v12L507.93,161.18z"/>
		<path class="st1" d="M503.28,241.69l-1.44-0.72c-4.72-2.34-7.65-7.05-7.65-12.3c0-4.94,2.63-9.45,6.89-11.9v-47.18
			c-4.26-2.45-6.89-6.96-6.89-11.9c0-5.25,2.93-9.96,7.65-12.3l1.44-0.72v13l4.64,2.38l4.64-2.38v-13l1.44,0.72
			c4.72,2.34,7.65,7.05,7.65,12.3c0,4.93-2.61,9.43-6.86,11.88v47.21c4.25,2.46,6.86,6.96,6.86,11.88c0,5.25-2.93,9.96-7.65,12.3
			l-1.44,0.72v-13l-4.64-2.38l-4.64,2.38V241.69z M501.28,148.03c-3.18,2.17-5.09,5.74-5.09,9.66c0,4.4,2.43,8.39,6.35,10.42
			l0.54,0.28v49.58l-0.54,0.28c-3.92,2.03-6.35,6.02-6.35,10.42c0,3.92,1.91,7.49,5.09,9.66v-10.87l6.64-3.41l6.64,3.41v10.87
			c3.18-2.17,5.09-5.74,5.09-9.66c0-4.38-2.42-8.37-6.32-10.4l-0.54-0.28v-49.61l0.54-0.28c3.9-2.03,6.32-6.02,6.32-10.4
			c0-3.92-1.92-7.49-5.09-9.66v10.87l-6.64,3.41l-6.64-3.41V148.03z"/>
	</g>
	<g>
		<g>
			<path class="st4" d="M485.06,195.81h-37.69c-2.3,0-4.19-1.88-4.19-4.19v-4.54c0-2.3,1.88-4.19,4.19-4.19h37.69
				c2.3,0,4.19,1.88,4.19,4.19v4.54C489.25,193.92,487.37,195.81,485.06,195.81z"/>
		</g>
		<g>
			<path class="st1" d="M466.1,209.44c-0.55,0-1-0.45-1-1v-6.35l24.77-4.05v-8.7c0-0.55,0.45-1,1-1s1,0.45,1,1v10.4l-24.77,4.05
				v4.65C467.1,209,466.65,209.44,466.1,209.44z"/>
		</g>
		<g>
			<path class="st3" d="M461.01,211.34C461.01,211.34,461.01,211.34,461.01,211.34l0,22.86c0,2.87,2.35,5.21,5.21,5.21
				c2.87,0,5.21-2.35,5.21-5.21v-22.86c0,0,0,0,0,0H461.01z"/>
			<path class="st1" d="M466.22,240.41c-3.42,0-6.21-2.79-6.21-6.21v-23.86l12.42,0v23.86
				C472.43,237.62,469.64,240.41,466.22,240.41z M462.01,212.34v21.86c0,2.32,1.89,4.21,4.21,4.21c2.32,0,4.21-1.89,4.21-4.21
				v-21.86L462.01,212.34z"/>
		</g>
		<g>
			<path class="st17" d="M466.1,215.35v17.81V215.35z"/>
			<rect x="465.1" y="215.35" class="st1" width="2" height="17.81"/>
		</g>
	</g>
	<g>
		<g>
			<g>
				<polygon class="st4" points="530.15,239.95 528.39,235.69 538.25,205.34 541.09,206.27 				"/>
			</g>
		</g>
		<g>
			<g>
				<polygon class="st4" points="554.44,239.95 556.2,235.69 546.34,205.34 543.49,206.27 				"/>
			</g>
		</g>
		<g>
			<path class="st1" d="M553.04,217.99h-22.02c-0.55,0-1-0.45-1-1c0-0.55,0.45-1,1-1h22.02c0.55,0,1,0.45,1,1
				C554.04,217.55,553.6,217.99,553.04,217.99z"/>
		</g>
		<g>
			<path class="st0" d="M542.34,219.3h-0.31c-0.45,0-0.81-0.36-0.81-0.81v-3c0-0.45,0.36-0.81,0.81-0.81h0.31
				c0.45,0,0.81,0.36,0.81,0.81v3C543.15,218.94,542.79,219.3,542.34,219.3z"/>
		</g>
		<g>
			<path class="st4" d="M542.34,194.66h-0.31c-0.45,0-0.81-0.36-0.81-0.81v-3c0-0.45,0.36-0.81,0.81-0.81h0.31
				c0.45,0,0.81,0.36,0.81,0.81v3C543.15,194.29,542.79,194.66,542.34,194.66z"/>
		</g>
		<g>
			<path class="st1" d="M542.19,207.46c-3.81,0-6.9-3.1-6.9-6.9c0-3.81,3.1-6.9,6.9-6.9c3.81,0,6.9,3.1,6.9,6.9
				C549.09,204.37,546,207.46,542.19,207.46z M542.19,195.66c-2.7,0-4.9,2.2-4.9,4.9s2.2,4.9,4.9,4.9s4.9-2.2,4.9-4.9
				S544.9,195.66,542.19,195.66z"/>
		</g>
	</g>
	<g>
		<g>
			<g>
				<polygon class="st1" points="387.09,92.44 289.13,71.41 240.5,92.39 239.71,90.55 288.93,69.32 289.24,69.39 387.51,90.49 				
					"/>
			</g>
			<g>
				<g>
					<rect x="268.53" y="232.3" class="st2" width="41" height="8"/>
					<path class="st1" d="M310.53,241.3h-43v-10h43V241.3z M269.53,239.3h39v-6h-39V239.3z"/>
				</g>
				<g>
					<rect x="272.7" y="226.47" class="st2" width="32.67" height="5.83"/>
					<path class="st1" d="M306.37,233.3H271.7v-7.83h34.67V233.3z M273.7,231.3h30.67v-3.83H273.7V231.3z"/>
				</g>
				<g>
					
						<rect x="296.75" y="201.66" transform="matrix(0.9785 -0.2061 0.2061 0.9785 -37.7511 65.9577)" class="st1" width="2" height="25.07"/>
				</g>
				<g>
					
						<rect x="267.78" y="213.2" transform="matrix(0.2061 -0.9785 0.9785 0.2061 12.9512 444.3617)" class="st1" width="25.07" height="2"/>
				</g>
			</g>
			<g>
				<g>
					<g>
						<path class="st1" d="M296.17,227.47H281.9V213.2h14.27V227.47z M283.9,225.47h10.27V215.2H283.9V225.47z"/>
					</g>
					<g>
						<path class="st1" d="M296.17,215.2H281.9v-14.27h14.27V215.2z M283.9,213.2h10.27v-10.27H283.9V213.2z"/>
					</g>
					<g>
						<path class="st1" d="M296.17,202.93H281.9v-14.27h14.27V202.93z M283.9,200.93h10.27v-10.27H283.9V200.93z"/>
					</g>
					<g>
						<path class="st1" d="M296.17,190.67H281.9V176.4h14.27V190.67z M283.9,188.67h10.27V178.4H283.9V188.67z"/>
					</g>
					<g>
						<path class="st1" d="M296.17,178.4H281.9v-14.27h14.27V178.4z M283.9,176.4h10.27v-10.27H283.9V176.4z"/>
					</g>
					<g>
						<path class="st1" d="M296.17,166.13H281.9v-14.27h14.27V166.13z M283.9,164.13h10.27v-10.27H283.9V164.13z"/>
					</g>
					<g>
						<path class="st1" d="M296.17,153.87H281.9V139.6h14.27V153.87z M283.9,151.87h10.27V141.6H283.9V151.87z"/>
					</g>
					<g>
						<path class="st1" d="M296.17,141.6H281.9v-14.27h14.27V141.6z M283.9,139.6h10.27v-10.27H283.9V139.6z"/>
					</g>
					<g>
						<path class="st1" d="M296.17,129.34H281.9v-14.27h14.27V129.34z M283.9,127.34h10.27v-10.27H283.9V127.34z"/>
					</g>
					<g>
						<path class="st1" d="M296.17,117.07H281.9V102.8h14.27V117.07z M283.9,115.07h10.27V104.8H283.9V115.07z"/>
					</g>
					<g>
						<path class="st1" d="M296.17,104.8H281.9V90.54h14.27V104.8z M283.9,102.8h10.27V92.54H283.9V102.8z"/>
					</g>
					<g>
						<path class="st1" d="M296.17,92.54H281.9V78.27h14.27V92.54z M283.9,90.54h10.27V80.27H283.9V90.54z"/>
					</g>
				</g>
				<g>
					<path class="st1" d="M296.17,92.32H281.9V78.74l7.13-10.11l7.13,10.11V92.32z M283.9,90.32h10.27V79.37l-5.13-7.27l-5.13,7.27
						V90.32z"/>
				</g>
				<g>
					
						<rect x="280.36" y="219.33" transform="matrix(0.7071 -0.7071 0.7071 0.7071 -71.145 268.8976)" class="st1" width="17.35" height="2"/>
				</g>
				<g>
					
						<rect x="280.36" y="182.53" transform="matrix(0.7071 -0.7071 0.7071 0.7071 -45.1225 258.1322)" class="st1" width="17.35" height="2"/>
				</g>
				<g>
					
						<rect x="280.36" y="170.27" transform="matrix(0.7071 -0.7071 0.7071 0.7071 -36.4489 254.5395)" class="st1" width="17.35" height="2"/>
				</g>
				<g>
					
						<rect x="280.36" y="158" transform="matrix(0.7071 -0.7071 0.7071 0.7071 -27.7753 250.9468)" class="st1" width="17.35" height="2"/>
				</g>
				<g>
					
						<rect x="280.36" y="145.73" transform="matrix(0.7071 -0.7071 0.7071 0.7071 -19.1052 247.3431)" class="st1" width="17.35" height="2"/>
				</g>
				<g>
					
						<rect x="280.36" y="133.47" transform="matrix(0.7071 -0.7071 0.7071 0.7071 -10.4319 243.7507)" class="st1" width="17.35" height="2"/>
				</g>
				<g>
					
						<rect x="280.36" y="121.2" transform="matrix(0.7071 -0.7071 0.7071 0.7071 -1.7586 240.1583)" class="st1" width="17.35" height="2"/>
				</g>
				<g>
					
						<rect x="280.36" y="108.94" transform="matrix(0.7071 -0.7071 0.7071 0.7071 6.9147 236.5659)" class="st1" width="17.35" height="2"/>
				</g>
				<g>
					
						<rect x="280.36" y="96.67" transform="matrix(0.7071 -0.7071 0.7071 0.7071 15.588 232.9734)" class="st1" width="17.35" height="2"/>
				</g>
				<g>
					
						<rect x="280.36" y="84.4" transform="matrix(0.7071 -0.7071 0.7071 0.7071 24.2614 229.381)" class="st1" width="17.35" height="2"/>
				</g>
				<g>
					
						<rect x="280.36" y="207.07" transform="matrix(0.7071 -0.7071 0.7071 0.7071 -62.4698 265.3177)" class="st1" width="17.35" height="2"/>
				</g>
				<g>
					
						<rect x="280.36" y="194.8" transform="matrix(0.7071 -0.7071 0.7071 0.7071 -53.7962 261.725)" class="st1" width="17.35" height="2"/>
				</g>
			</g>
			<g>
				<g>
					<g>
						<path class="st1" d="M388.3,112.67h-14.27v-10.02h14.27V112.67z M376.03,110.67h10.27v-6.02h-10.27V110.67z"/>
					</g>
					<g>
						<path class="st1" d="M253.37,112.67H239.1v-10.02h14.27V112.67z M241.1,110.67h10.27v-6.02H241.1V110.67z"/>
					</g>
					<g>
						<g>
							<path class="st1" d="M388.3,104.73h-14.27V90.47h14.27V104.73z M376.03,102.73h10.27V92.47h-10.27V102.73z"/>
						</g>
						<g>
							<path class="st1" d="M376.03,104.73h-14.27V90.47h14.27V104.73z M363.77,102.73h10.27V92.47h-10.27V102.73z"/>
						</g>
						<g>
							<path class="st1" d="M363.77,104.73H349.5V90.47h14.27V104.73z M351.5,102.73h10.27V92.47H351.5V102.73z"/>
						</g>
						<g>
							<path class="st1" d="M351.5,104.73h-14.27V90.47h14.27V104.73z M339.23,102.73h10.27V92.47h-10.27V102.73z"/>
						</g>
						<g>
							<path class="st1" d="M339.23,104.73h-14.27V90.47h14.27V104.73z M326.97,102.73h10.27V92.47h-10.27V102.73z"/>
						</g>
						<g>
							<path class="st1" d="M326.97,104.73H312.7V90.47h14.27V104.73z M314.7,102.73h10.27V92.47H314.7V102.73z"/>
						</g>
						<g>
							<path class="st1" d="M314.7,104.73h-14.27V90.47h14.27V104.73z M302.43,102.73h10.27V92.47h-10.27V102.73z"/>
						</g>
						<g>
							<path class="st1" d="M302.43,104.73h-14.27V90.47h14.27V104.73z M290.17,102.73h10.27V92.47h-10.27V102.73z"/>
						</g>
						<g>
							<path class="st1" d="M290.17,104.73H275.9V90.47h14.27V104.73z M277.9,102.73h10.27V92.47H277.9V102.73z"/>
						</g>
						<g>
							<path class="st1" d="M277.9,104.73h-14.27V90.47h14.27V104.73z M265.63,102.73h10.27V92.47h-10.27V102.73z"/>
						</g>
						<g>
							<path class="st1" d="M265.63,104.73h-14.27V90.47h14.27V104.73z M253.37,102.73h10.27V92.47h-10.27V102.73z"/>
						</g>
						<g>
							<path class="st1" d="M253.37,104.73H239.1V90.47h14.27V104.73z M241.1,102.73h10.27V92.47H241.1V102.73z"/>
						</g>
					</g>
				</g>
				<g>
					
						<rect x="237.56" y="96.6" transform="matrix(0.7071 -0.7071 0.7071 0.7071 3.111 202.7097)" class="st1" width="17.35" height="2"/>
				</g>
				<g>
					
						<rect x="249.83" y="96.6" transform="matrix(0.7071 -0.7071 0.7071 0.7071 6.704 211.3837)" class="st1" width="17.35" height="2"/>
				</g>
				<g>
					
						<rect x="262.09" y="96.6" transform="matrix(0.7071 -0.7071 0.7071 0.7071 10.297 220.0574)" class="st1" width="17.35" height="2"/>
				</g>
				<g>
					
						<rect x="274.36" y="96.6" transform="matrix(0.7071 -0.7071 0.7071 0.7071 13.89 228.7313)" class="st1" width="17.35" height="2"/>
				</g>
				<g>
					
						<rect x="286.63" y="96.6" transform="matrix(0.7071 -0.7071 0.7071 0.7071 17.4834 237.4059)" class="st1" width="17.35" height="2"/>
				</g>
				<g>
					
						<rect x="298.89" y="96.6" transform="matrix(0.7071 -0.7071 0.7071 0.7071 21.0757 246.0783)" class="st1" width="17.35" height="2"/>
				</g>
				<g>
					
						<rect x="311.16" y="96.6" transform="matrix(0.7071 -0.7071 0.7071 0.7071 24.6635 254.7425)" class="st1" width="17.35" height="2"/>
				</g>
				<g>
					
						<rect x="323.43" y="96.6" transform="matrix(0.7071 -0.7071 0.7071 0.7071 28.2563 263.4163)" class="st1" width="17.35" height="2"/>
				</g>
				<g>
					
						<rect x="335.69" y="96.6" transform="matrix(0.7071 -0.7071 0.7071 0.7071 31.8491 272.0901)" class="st1" width="17.35" height="2"/>
				</g>
				<g>
					
						<rect x="347.96" y="96.6" transform="matrix(0.7071 -0.7071 0.7071 0.7071 35.4418 280.7635)" class="st1" width="17.35" height="2"/>
				</g>
				<g>
					
						<rect x="360.22" y="96.6" transform="matrix(0.7071 -0.7071 0.7071 0.7071 39.0345 289.437)" class="st1" width="17.35" height="2"/>
				</g>
				<g>
					
						<rect x="372.49" y="96.6" transform="matrix(0.7071 -0.7071 0.7071 0.7071 42.6344 298.1228)" class="st1" width="17.35" height="2"/>
				</g>
				<g>
					<rect x="375.03" y="106.67" class="st1" width="12.27" height="2"/>
				</g>
				<g>
					<rect x="240.1" y="106.67" class="st1" width="12.27" height="2"/>
				</g>
			</g>
			<g>
				<rect x="279.93" y="87.53" class="st2" width="21.5" height="19"/>
				<path class="st1" d="M302.43,107.53h-23.5v-21h23.5V107.53z M280.93,105.53h19.5v-17h-19.5V105.53z"/>
			</g>
			<g>
				<g>
					<path class="st1" d="M384.41,140.51h-6.5v-11h6.5V140.51z M379.91,138.51h2.5v-7h-2.5V138.51z"/>
				</g>
				<g>
					<rect x="380.16" y="111.67" class="st1" width="2" height="18.83"/>
				</g>
				<g>
					<path class="st1" d="M381.16,148.51c-2,0-3.63-1.63-3.63-3.63h2c0,0.9,0.73,1.63,1.63,1.63c0.9,0,1.63-0.73,1.63-1.63
						c0-0.9-0.73-1.63-1.63-1.63h-1v-3.75h2v1.89c1.51,0.44,2.63,1.83,2.63,3.48C384.79,146.88,383.16,148.51,381.16,148.51z"/>
				</g>
			</g>
		</g>
		<g>
			<g>
				<g>
					<path class="st0" d="M425.45,196.91l-74.08,19.58c-5.59,1.48-11.36-1.89-12.84-7.47l-4.34-16.43
						c-1.48-5.59,1.89-11.36,7.47-12.84l74.08-19.58c5.59-1.48,11.36,1.89,12.84,7.47l4.34,16.43
						C434.39,189.65,431.03,195.43,425.45,196.91z"/>
					<path class="st1" d="M348.68,217.84c-5.09,0-9.76-3.41-11.13-8.57l-4.34-16.43c-0.78-2.96-0.36-6.06,1.19-8.72
						c1.55-2.66,4.03-4.56,6.99-5.34l74.08-19.58c6.13-1.62,12.44,2.05,14.06,8.18l4.34,16.43c0.78,2.96,0.36,6.06-1.19,8.72
						c-1.55,2.66-4.03,4.56-6.99,5.34l-74.08,19.58C350.64,217.71,349.65,217.84,348.68,217.84z M418.42,160.82
						c-0.8,0-1.62,0.1-2.43,0.32l-74.08,19.58c-2.44,0.65-4.5,2.21-5.78,4.41c-1.28,2.2-1.63,4.76-0.99,7.2l4.34,16.43
						c1.34,5.07,6.55,8.1,11.62,6.76l74.08-19.58c2.44-0.65,4.5-2.21,5.78-4.42c1.28-2.2,1.63-4.76,0.99-7.2l-4.34-16.43
						C426.48,163.64,422.63,160.82,418.42,160.82z"/>
				</g>
				<g>
					<path class="st1" d="M364.11,179.57l1.19,4.5c0.36,1.34,1.05,1.89,1.95,1.66c0.93-0.25,1.27-1.03,0.9-2.41l-1.19-4.5l1.76-0.47
						l1.16,4.38c0.64,2.41-0.28,3.88-2.32,4.42c-1.97,0.52-3.42-0.26-4.08-2.75l-1.15-4.36L364.11,179.57z"/>
					<path class="st1" d="M372.33,185.76l-2.06-7.82l2.06-0.54l2.38,2.43c0.68,0.7,1.4,1.55,1.98,2.34l0.04-0.01
						c-0.39-1-0.7-2.05-1.01-3.22l-0.6-2.28l1.62-0.43l2.07,7.82l-1.86,0.49l-2.47-2.57c-0.68-0.71-1.46-1.59-2.09-2.4l-0.03,0.02
						c0.32,1.02,0.63,2.12,0.97,3.39l0.62,2.35L372.33,185.76z"/>
					<path class="st1" d="M378.29,175.93c0.62-0.28,1.45-0.56,2.35-0.79c1.48-0.39,2.52-0.38,3.42-0.01c0.97,0.39,1.74,1.22,2.1,2.6
						c0.4,1.5,0.12,2.67-0.46,3.51c-0.64,0.9-1.81,1.56-3.34,1.96c-0.92,0.24-1.58,0.36-2.04,0.41L378.29,175.93z M381.75,181.84
						c0.16-0.01,0.4-0.07,0.62-0.13c1.6-0.41,2.41-1.57,1.92-3.44c-0.42-1.63-1.59-2.23-3.11-1.83c-0.39,0.1-0.64,0.21-0.78,0.28
						L381.75,181.84z"/>
					<path class="st1" d="M392.18,176.97l-2.88,0.76l0.49,1.86l3.21-0.85l0.38,1.45l-4.99,1.32l-2.06-7.82l4.82-1.28l0.38,1.45
						l-3.05,0.81l0.43,1.62l2.88-0.76L392.18,176.97z"/>
					<path class="st1" d="M392.57,172.16c0.54-0.24,1.37-0.54,2.31-0.78c1.16-0.31,2.02-0.35,2.69-0.05
						c0.56,0.25,0.96,0.73,1.15,1.45c0.26,1-0.26,1.87-0.87,2.29l0.01,0.04c0.6,0.08,1.04,0.52,1.43,1.19
						c0.48,0.82,0.99,1.77,1.22,2.03l-1.81,0.48c-0.19-0.19-0.54-0.78-1.03-1.68c-0.47-0.92-0.87-1.1-1.6-0.92l-0.53,0.14l0.81,3.07
						l-1.75,0.46L392.57,172.16z M395.2,175.06l0.7-0.18c0.88-0.23,1.29-0.81,1.1-1.5c-0.19-0.72-0.77-0.95-1.59-0.75
						c-0.43,0.11-0.66,0.21-0.79,0.27L395.2,175.06z"/>
					<path class="st1" d="M349.8,202.85c-0.28,0.25-0.97,0.62-1.92,0.87c-2.7,0.71-4.54-0.6-5.13-2.83
						c-0.71-2.67,0.8-4.65,3.17-5.28c0.92-0.24,1.66-0.24,2.02-0.16l0.01,1.5c-0.4-0.06-0.93-0.06-1.56,0.1
						c-1.4,0.37-2.27,1.5-1.81,3.24c0.41,1.56,1.6,2.3,3.18,1.89c0.53-0.14,1.09-0.41,1.41-0.64L349.8,202.85z"/>
					<path class="st1" d="M356.77,196.98c0.68,2.56-0.46,4.53-2.75,5.13c-2.32,0.61-4.14-0.78-4.73-3.01
						c-0.62-2.34,0.41-4.49,2.72-5.1C354.42,193.37,356.2,194.82,356.77,196.98z M351.15,198.58c0.4,1.53,1.41,2.42,2.59,2.11
						c1.19-0.32,1.58-1.63,1.18-3.15c-0.37-1.4-1.36-2.43-2.58-2.11C351.15,195.74,350.75,197.06,351.15,198.58z"/>
					<path class="st1" d="M358.99,200.66l-2.07-7.82l2.06-0.54l2.38,2.44c0.68,0.7,1.4,1.55,1.98,2.34l0.03-0.01
						c-0.39-1-0.7-2.05-1.01-3.22l-0.6-2.29l1.62-0.43l2.07,7.82l-1.86,0.49l-2.47-2.57c-0.68-0.71-1.46-1.59-2.09-2.4l-0.03,0.02
						c0.32,1.02,0.63,2.12,0.97,3.39l0.62,2.35L358.99,200.66z"/>
					<path class="st1" d="M366.57,196.71c0.54,0.12,1.33,0.17,2.09-0.03c0.81-0.21,1.15-0.66,1.02-1.17
						c-0.13-0.49-0.57-0.67-1.6-0.76c-1.42-0.11-2.46-0.6-2.75-1.74c-0.35-1.33,0.49-2.65,2.34-3.14c0.88-0.23,1.58-0.22,2.1-0.13
						l-0.02,1.53c-0.35-0.07-0.97-0.14-1.73,0.06c-0.77,0.2-1.04,0.65-0.94,1.05c0.13,0.5,0.63,0.6,1.74,0.72
						c1.52,0.15,2.35,0.69,2.65,1.79c0.35,1.31-0.37,2.69-2.51,3.26c-0.89,0.24-1.83,0.24-2.34,0.11L366.57,196.71z"/>
					<path class="st1" d="M373.09,190.16l-2.1,0.55l-0.39-1.48l6.01-1.59l0.39,1.48l-2.13,0.56l1.67,6.33l-1.77,0.47L373.09,190.16z
						"/>
					<path class="st1" d="M377.58,187.5c0.54-0.24,1.37-0.54,2.31-0.78c1.16-0.31,2.02-0.35,2.69-0.05
						c0.56,0.25,0.96,0.73,1.15,1.45c0.26,1-0.26,1.87-0.87,2.29l0.01,0.04c0.6,0.08,1.04,0.52,1.43,1.19
						c0.48,0.82,0.99,1.77,1.22,2.03l-1.81,0.48c-0.19-0.19-0.54-0.78-1.03-1.68c-0.47-0.92-0.87-1.1-1.59-0.92l-0.53,0.14
						l0.81,3.07l-1.75,0.46L377.58,187.5z M380.22,190.4l0.7-0.18c0.88-0.23,1.29-0.81,1.11-1.5c-0.19-0.72-0.77-0.95-1.59-0.75
						c-0.43,0.11-0.66,0.21-0.79,0.27L380.22,190.4z"/>
					<path class="st1" d="M386.14,185.12l1.19,4.5c0.36,1.34,1.05,1.89,1.95,1.66c0.93-0.25,1.27-1.03,0.9-2.41l-1.19-4.5l1.76-0.47
						l1.16,4.38c0.64,2.41-0.28,3.88-2.32,4.42c-1.97,0.52-3.42-0.26-4.08-2.76l-1.15-4.36L386.14,185.12z"/>
					<path class="st1" d="M400.03,189.58c-0.28,0.25-0.97,0.62-1.92,0.87c-2.7,0.71-4.54-0.6-5.13-2.83
						c-0.71-2.67,0.8-4.65,3.17-5.28c0.92-0.24,1.66-0.24,2.02-0.16l0.01,1.5c-0.4-0.06-0.93-0.06-1.56,0.1
						c-1.4,0.37-2.27,1.5-1.81,3.24c0.41,1.56,1.6,2.3,3.18,1.89c0.53-0.14,1.09-0.41,1.41-0.64L400.03,189.58z"/>
					<path class="st1" d="M401.25,182.72l-2.1,0.55l-0.39-1.48l6.01-1.59l0.39,1.48l-2.13,0.56l1.67,6.33l-1.77,0.47L401.25,182.72z
						"/>
					<path class="st1" d="M407.48,179.48l2.07,7.82l-1.77,0.47l-2.06-7.82L407.48,179.48z"/>
					<path class="st1" d="M417.18,181.01c0.68,2.56-0.46,4.53-2.75,5.13c-2.32,0.61-4.14-0.78-4.73-3.01
						c-0.62-2.34,0.41-4.49,2.72-5.1C414.82,177.41,416.61,178.86,417.18,181.01z M411.56,182.61c0.4,1.53,1.41,2.42,2.59,2.11
						c1.19-0.32,1.58-1.63,1.18-3.15c-0.37-1.4-1.36-2.43-2.58-2.11C411.55,179.77,411.16,181.09,411.56,182.61z"/>
					<path class="st1" d="M419.4,184.7l-2.06-7.82l2.06-0.54l2.38,2.43c0.68,0.7,1.4,1.55,1.98,2.34l0.03-0.01
						c-0.39-1-0.7-2.05-1.01-3.22l-0.6-2.29l1.62-0.43l2.07,7.82l-1.86,0.49l-2.47-2.57c-0.68-0.71-1.46-1.59-2.09-2.4l-0.03,0.02
						c0.32,1.02,0.63,2.12,0.97,3.39l0.62,2.35L419.4,184.7z"/>
				</g>
				<g>
					<defs>
						
							<rect id="SVGID_19_" x="343.97" y="198.44" transform="matrix(0.9668 -0.2555 0.2555 0.9668 -38.4515 105.8137)" width="88.14" height="4.92"/>
					</defs>
					<clipPath id="SVGID_20_">
						<use xlink:href="#SVGID_19_"  style="overflow:visible;"/>
					</clipPath>
					<g class="st18">
						
							<rect x="345.19" y="208.72" transform="matrix(0.3617 -0.9323 0.9323 0.3617 26.7103 461.2235)" class="st1" width="10.01" height="4.76"/>
					</g>
					<g class="st18">
						
							<rect x="356.03" y="205.86" transform="matrix(0.3617 -0.9323 0.9323 0.3617 36.3015 469.503)" class="st1" width="10.01" height="4.76"/>
					</g>
					<g class="st18">
						
							<rect x="366.87" y="203" transform="matrix(0.3617 -0.9323 0.9323 0.3617 45.8961 477.7866)" class="st1" width="10.01" height="4.76"/>
					</g>
					<g class="st18">
						
							<rect x="377.7" y="200.13" transform="matrix(0.3617 -0.9323 0.9323 0.3617 55.4801 486.0573)" class="st1" width="10.01" height="4.76"/>
					</g>
					<g class="st18">
						
							<rect x="388.54" y="197.27" transform="matrix(0.3617 -0.9323 0.9323 0.3617 65.0694 494.3344)" class="st1" width="10.01" height="4.76"/>
					</g>
					<g class="st18">
						
							<rect x="399.38" y="194.4" transform="matrix(0.3617 -0.9323 0.9323 0.3617 74.6647 502.618)" class="st1" width="10.01" height="4.76"/>
					</g>
					<g class="st18">
						
							<rect x="410.22" y="191.54" transform="matrix(0.3617 -0.9323 0.9323 0.3617 84.2455 510.8861)" class="st1" width="10.01" height="4.76"/>
					</g>
					<g class="st18">
						
							<rect x="421.06" y="188.67" transform="matrix(0.3617 -0.9323 0.9323 0.3617 93.8348 519.1633)" class="st1" width="10.01" height="4.76"/>
					</g>
				</g>
				<g>
					<path class="st1" d="M343.52,186.03c0.33,1.25-0.41,2.52-1.66,2.85c-1.25,0.33-2.52-0.41-2.85-1.66
						c-0.33-1.25,0.41-2.52,1.66-2.85C341.92,184.04,343.19,184.79,343.52,186.03z"/>
				</g>
				<g>
					<path class="st1" d="M421.11,165.53c0.33,1.25-0.41,2.52-1.66,2.85c-1.25,0.33-2.52-0.41-2.85-1.66
						c-0.33-1.25,0.41-2.52,1.66-2.85C419.5,163.54,420.78,164.28,421.11,165.53z"/>
				</g>
			</g>
			<g>
				<polygon class="st1" points="341.96,187.35 340.57,185.91 381.55,146.3 419.3,165.23 418.4,167.02 381.92,148.72 				"/>
			</g>
		</g>
	</g>
	<g>
		<g>
			<polygon class="st0" points="671.78,157.53 609.3,157.53 609.3,155.27 667.47,155.27 			"/>
		</g>
		<g>
			<path class="st0" d="M637.43,129.48c-14.4,0-26.07,11.67-26.07,26.07h52.13C663.5,141.15,651.83,129.48,637.43,129.48z"/>
		</g>
		<g>
			<path class="st1" d="M623.68,156.55h-6.67v-3.88c0-1.84,1.5-3.33,3.33-3.33s3.33,1.5,3.33,3.33V156.55z M619.01,154.55h2.67
				v-1.88c0-0.74-0.6-1.33-1.33-1.33c-0.74,0-1.33,0.6-1.33,1.33V154.55z"/>
		</g>
		<g>
			<path class="st1" d="M640.68,156.55h-6.67v-3.88c0-1.84,1.5-3.33,3.33-3.33s3.33,1.5,3.33,3.33V156.55z M636.02,154.55h2.67
				v-1.88c0-0.74-0.6-1.33-1.33-1.33c-0.74,0-1.33,0.6-1.33,1.33V154.55z"/>
		</g>
		<g>
			<path class="st1" d="M657.69,156.55h-6.67v-3.88c0-1.84,1.5-3.33,3.33-3.33c1.84,0,3.33,1.5,3.33,3.33V156.55z M653.02,154.55
				h2.67v-1.88c0-0.74-0.6-1.33-1.33-1.33c-0.74,0-1.33,0.6-1.33,1.33V154.55z"/>
		</g>
		<g>
			<path class="st3" d="M617.53,147.4c-0.13,0-0.26-0.03-0.39-0.08c-0.51-0.21-0.75-0.8-0.53-1.31
				c3.24-7.67,10.72-12.62,19.04-12.62c0.55,0,1,0.45,1,1c0,0.55-0.45,1-1,1c-7.52,0-14.27,4.48-17.2,11.4
				C618.28,147.17,617.91,147.4,617.53,147.4z"/>
		</g>
	</g>
	<g>
		<g>
			<path class="st3" d="M366.72,215.97l-2.55,1l0.49,2.84c-0.89,0.62-1.64,1.38-2.25,2.24l-2.78-0.5l-1.1,2.51l2.35,1.66
				c-0.16,0.92-0.19,1.88-0.06,2.83l-2.42,1.56l1,2.55l2.8-0.38c0.59,0.91,1.32,1.69,2.15,2.33l-0.6,2.82l2.51,1.1l1.71-2.25
				c1.03,0.22,2.1,0.27,3.17,0.13l1.57,2.42l2.55-1l-0.38-2.8c0.91-0.59,1.69-1.32,2.33-2.15l2.82,0.6l1.1-2.51l-2.25-1.71
				c0.25-1.14,0.28-2.33,0.07-3.51l2.32-1.61l-1-2.55l-2.84,0.49c-0.62-0.89-1.38-1.64-2.24-2.25l0.5-2.78l-2.51-1.1l-1.66,2.35
				c-1.03-0.18-2.11-0.19-3.17-0.01L366.72,215.97z"/>
			<path class="st19" d="M372.31,240.06l-1.67-2.59c-0.75,0.05-1.5,0.02-2.24-0.09l-1.81,2.39l-3.98-1.74l0.65-3.02
				c-0.57-0.49-1.08-1.04-1.52-1.65l-2.97,0.41l-1.58-4.05l2.59-1.68c-0.04-0.62-0.03-1.24,0.04-1.86l-2.52-1.78l1.74-3.98
				l2.95,0.53c0.47-0.59,1-1.12,1.59-1.58l-0.52-3.04l4.05-1.58l1.71,2.46c0.75-0.08,1.5-0.08,2.24,0l1.78-2.52l3.98,1.74
				l-0.53,2.95c0.59,0.47,1.12,1,1.58,1.59l3.04-0.52l1.58,4.05l-2.46,1.71c0.1,0.87,0.08,1.75-0.05,2.62l2.39,1.81l-1.75,3.98
				l-3.02-0.65c-0.49,0.57-1.04,1.08-1.65,1.52l0.41,2.97L372.31,240.06z M371.64,235.34l1.47,2.27l1.06-0.41l-0.36-2.65l0.54-0.35
				c0.8-0.51,1.5-1.16,2.07-1.92l0.38-0.51l2.64,0.57l0.46-1.04l-2.13-1.62l0.14-0.62c0.23-1.04,0.25-2.09,0.06-3.13l-0.11-0.63
				l2.2-1.53l-0.41-1.06l-2.66,0.46l-0.36-0.52c-0.54-0.78-1.21-1.45-2-2l-0.52-0.37l0.47-2.63l-1.04-0.46l-1.56,2.21l-0.63-0.11
				c-0.94-0.17-1.89-0.17-2.83,0l-0.63,0.11l-1.53-2.2l-1.06,0.41l0.46,2.66l-0.52,0.36c-0.78,0.54-1.45,1.22-2,2l-0.37,0.52
				l-2.63-0.47l-0.46,1.04l2.21,1.56l-0.11,0.63c-0.15,0.83-0.17,1.68-0.05,2.52l0.08,0.63l-2.27,1.47l0.41,1.06l2.65-0.36
				l0.34,0.54c0.51,0.8,1.16,1.5,1.92,2.07l0.51,0.38l-0.57,2.64l1.04,0.46l1.62-2.13l0.62,0.14c0.93,0.2,1.88,0.24,2.82,0.11
				L371.64,235.34z"/>
		</g>
		<g>
			<path class="st19" d="M369.91,232c-0.64,0-1.27-0.13-1.87-0.39c-1.14-0.5-2.02-1.42-2.48-2.58c-0.45-1.16-0.43-2.43,0.07-3.57
				c0.5-1.14,1.42-2.02,2.58-2.48c2.4-0.94,5.11,0.25,6.05,2.65c0.94,2.4-0.25,5.11-2.65,6.05C371.06,231.89,370.48,232,369.91,232z
				 M369.91,224.66c-0.32,0-0.65,0.06-0.97,0.18c-0.67,0.26-1.19,0.76-1.47,1.42c-0.29,0.65-0.3,1.38-0.04,2.04
				c0.26,0.66,0.76,1.19,1.41,1.47c0.65,0.29,1.38,0.3,2.04,0.04c1.37-0.54,2.05-2.09,1.52-3.46
				C371.99,225.3,370.98,224.66,369.91,224.66z"/>
		</g>
	</g>
	<g>
		<path class="st1" d="M224.36,172.28c-1.72,0-3.13-1.4-3.13-3.13c0-1.72,1.4-3.13,3.13-3.13c1.72,0,3.13,1.4,3.13,3.13
			C227.49,170.88,226.08,172.28,224.36,172.28z M224.36,168.03c-0.62,0-1.13,0.5-1.13,1.13s0.5,1.13,1.13,1.13s1.13-0.5,1.13-1.13
			S224.98,168.03,224.36,168.03z"/>
	</g>
</g>
</svg>
